<?xml version="1.0" encoding="UTF-8" standalone="no"?>
<svg
   xmlns:dc="http://purl.org/dc/elements/1.1/"
   xmlns:cc="http://creativecommons.org/ns#"
   xmlns:rdf="http://www.w3.org/1999/02/22-rdf-syntax-ns#"
   xmlns:svg="http://www.w3.org/2000/svg"
   xmlns="http://www.w3.org/2000/svg"
   xmlns:sodipodi="http://sodipodi.sourceforge.net/DTD/sodipodi-0.dtd"
   xmlns:inkscape="http://www.inkscape.org/namespaces/inkscape"
   version="1.1"
   id="svg10"
   xml:space="preserve"
   width="960"
   height="478.66666"
   viewBox="0 0 960 478.66666"
   sodipodi:docname="Figure2.svg"
   inkscape:version="1.0.2 (e86c8708, 2021-01-15)"><metadata
     id="metadata16"><rdf:RDF><cc:Work
         rdf:about=""><dc:format>image/svg+xml</dc:format><dc:type
           rdf:resource="http://purl.org/dc/dcmitype/StillImage" /><dc:title /></cc:Work></rdf:RDF></metadata><defs
     id="defs14"><clipPath
       clipPathUnits="userSpaceOnUse"
       id="clipPath66"><path
         d="M 121.38,59.46 H 616.81 V 352.53 H 121.38 Z"
         id="path64" /></clipPath></defs><sodipodi:namedview
     pagecolor="#ffffff"
     bordercolor="#666666"
     borderopacity="1"
     objecttolerance="10"
     gridtolerance="10"
     guidetolerance="10"
     inkscape:pageopacity="0"
     inkscape:pageshadow="2"
     inkscape:window-width="1881"
     inkscape:window-height="962"
     id="namedview12"
     showgrid="false"
     inkscape:zoom="1.4115525"
     inkscape:cx="380.52752"
     inkscape:cy="220.53379"
     inkscape:window-x="117"
     inkscape:window-y="25"
     inkscape:window-maximized="0"
     inkscape:current-layer="g18"
     inkscape:document-rotation="0"
     showguides="true"
     inkscape:guide-bbox="true"><sodipodi:guide
       position="266.88076,427.87323"
       orientation="0,-1"
       id="guide231" /><sodipodi:guide
       position="434.14666,150.85332"
       orientation="0,-1"
       id="guide233" /></sodipodi:namedview><g
     id="g18"
     inkscape:groupmode="layer"
     inkscape:label="Figure2"
     transform="matrix(1.3333333,0,0,-1.3333333,0,478.66667)"><g
       id="g20" /><g
       id="g22" /><g
       id="g24" /><g
       id="g26" /><g
       id="g28" /><g
       id="g30" /><g
       id="g32" /><g
       id="g34" /><g
       id="g36" /><g
       id="g38" /><g
       id="g40" /><g
       id="g42" /><g
       id="g44" /><g
       id="g46" /><g
       id="g48" /><g
       id="g50" /><g
       id="g52" /><g
       id="g54" /><g
       id="g56" /><g
       id="g58" /><path
       d="M 200.2,59.46 V 352.53"
       style="fill:none;stroke:#ebebeb;stroke-width:0.73;stroke-linecap:butt;stroke-linejoin:round;stroke-miterlimit:10;stroke-dasharray:none;stroke-opacity:1"
       id="path68" /><path
       d="M 312.79,59.46 V 352.53"
       style="fill:none;stroke:#ebebeb;stroke-width:0.73;stroke-linecap:butt;stroke-linejoin:round;stroke-miterlimit:10;stroke-dasharray:none;stroke-opacity:1"
       id="path70" /><path
       d="M 425.39,59.46 V 352.53"
       style="fill:none;stroke:#ebebeb;stroke-width:0.73;stroke-linecap:butt;stroke-linejoin:round;stroke-miterlimit:10;stroke-dasharray:none;stroke-opacity:1"
       id="path72" /><path
       d="M 537.99,59.46 V 352.53"
       style="fill:none;stroke:#ebebeb;stroke-width:0.73;stroke-linecap:butt;stroke-linejoin:round;stroke-miterlimit:10;stroke-dasharray:none;stroke-opacity:1"
       id="path74" /><path
       d="M 121.38,101.33 H 616.81"
       style="fill:none;stroke:#ebebeb;stroke-width:1.45;stroke-linecap:butt;stroke-linejoin:round;stroke-miterlimit:10;stroke-dasharray:none;stroke-opacity:1"
       id="path76" /><path
       d="M 121.38,171.1 H 616.81"
       style="fill:none;stroke:#ebebeb;stroke-width:1.45;stroke-linecap:butt;stroke-linejoin:round;stroke-miterlimit:10;stroke-dasharray:none;stroke-opacity:1"
       id="path78" /><path
       d="M 121.38,240.88 H 616.81"
       style="fill:none;stroke:#ebebeb;stroke-width:1.45;stroke-linecap:butt;stroke-linejoin:round;stroke-miterlimit:10;stroke-dasharray:none;stroke-opacity:1"
       id="path80" /><path
       d="M 121.38,310.66 H 616.81"
       style="fill:none;stroke:#ebebeb;stroke-width:1.45;stroke-linecap:butt;stroke-linejoin:round;stroke-miterlimit:10;stroke-dasharray:none;stroke-opacity:1"
       id="path82" /><path
       d="M 143.9,59.46 V 352.53"
       style="fill:none;stroke:#ebebeb;stroke-width:1.45;stroke-linecap:butt;stroke-linejoin:round;stroke-miterlimit:10;stroke-dasharray:none;stroke-opacity:1"
       id="path84" /><path
       d="M 256.5,59.46 V 352.53"
       style="fill:none;stroke:#ebebeb;stroke-width:1.45;stroke-linecap:butt;stroke-linejoin:round;stroke-miterlimit:10;stroke-dasharray:none;stroke-opacity:1"
       id="path86" /><path
       d="M 369.09,59.46 V 352.53"
       style="fill:none;stroke:#ebebeb;stroke-width:1.45;stroke-linecap:butt;stroke-linejoin:round;stroke-miterlimit:10;stroke-dasharray:none;stroke-opacity:1"
       id="path88" /><path
       d="M 481.69,59.46 V 352.53"
       style="fill:none;stroke:#ebebeb;stroke-width:1.45;stroke-linecap:butt;stroke-linejoin:round;stroke-miterlimit:10;stroke-dasharray:none;stroke-opacity:1"
       id="path90" /><path
       d="M 594.29,59.46 V 352.53"
       style="fill:none;stroke:#ebebeb;stroke-width:1.45;stroke-linecap:butt;stroke-linejoin:round;stroke-miterlimit:10;stroke-dasharray:none;stroke-opacity:1"
       id="path92" /><path
       d="m 514.83,240.88 c 0,2.42 1.98,4.39 4.39,4.39 2.41,0 4.39,-1.97 4.39,-4.39 0,-2.41 -1.98,-4.38 -4.39,-4.38 -2.41,0 -4.39,1.97 -4.39,4.38"
       style="fill:#000000;fill-opacity:1;fill-rule:nonzero;stroke:#000000;stroke-width:0.71;stroke-linecap:round;stroke-linejoin:round;stroke-miterlimit:10;stroke-dasharray:none;stroke-opacity:1"
       id="path94" /><path
       d="m 196.64,240.88 c 0,1.21 0.99,2.2 2.21,2.2 1.21,0 2.2,-0.99 2.2,-2.2 0,-1.21 -0.99,-2.2 -2.2,-2.2 -1.22,0 -2.21,0.99 -2.21,2.2"
       style="fill:#000000;fill-opacity:1;fill-rule:nonzero;stroke:#000000;stroke-width:0.71;stroke-linecap:round;stroke-linejoin:round;stroke-miterlimit:10;stroke-dasharray:none;stroke-opacity:1"
       id="path96" /><path
       d="m 261.4,310.66 c 0,1.54 1.26,2.8 2.8,2.8 1.54,0 2.8,-1.26 2.8,-2.8 0,-1.54 -1.26,-2.8 -2.8,-2.8 -1.54,0 -2.8,1.26 -2.8,2.8"
       style="fill:#000000;fill-opacity:1;fill-rule:nonzero;stroke:#000000;stroke-width:0.71;stroke-linecap:round;stroke-linejoin:round;stroke-miterlimit:10;stroke-dasharray:none;stroke-opacity:1"
       id="path98" /><path
       d="m 235.14,171.1 c 0,2.03 1.66,3.69 3.69,3.69 2.03,0 3.69,-1.66 3.69,-3.69 0,-2.02 -1.66,-3.68 -3.69,-3.68 -2.03,0 -3.69,1.66 -3.69,3.68"
       style="fill:#000000;fill-opacity:1;fill-rule:nonzero;stroke:#000000;stroke-width:0.71;stroke-linecap:round;stroke-linejoin:round;stroke-miterlimit:10;stroke-dasharray:none;stroke-opacity:1"
       id="path100" /><path
       d="m 226.24,310.66 c 0,2.39 1.95,4.34 4.33,4.34 2.39,0 4.34,-1.95 4.34,-4.34 0,-2.38 -1.95,-4.34 -4.34,-4.34 -2.38,0 -4.33,1.96 -4.33,4.34"
       style="fill:#000000;fill-opacity:1;fill-rule:nonzero;stroke:#000000;stroke-width:0.71;stroke-linecap:round;stroke-linejoin:round;stroke-miterlimit:10;stroke-dasharray:none;stroke-opacity:1"
       id="path102" /><path
       d="m 138.86,171.1 c 0,2.77 2.27,5.04 5.04,5.04 2.77,0 5.03,-2.27 5.03,-5.04 0,-2.76 -2.26,-5.03 -5.03,-5.03 -2.77,0 -5.04,2.27 -5.04,5.03"
       style="fill:#ff0000;fill-opacity:1;fill-rule:nonzero;stroke:#ff0000;stroke-width:0.71;stroke-linecap:round;stroke-linejoin:round;stroke-miterlimit:10;stroke-dasharray:none;stroke-opacity:1"
       id="path104" /><path
       d="m 221.65,240.88 c 0,1.28 1.04,2.32 2.32,2.32 1.27,0 2.31,-1.04 2.31,-2.32 0,-1.27 -1.04,-2.31 -2.31,-2.31 -1.28,0 -2.32,1.04 -2.32,2.31"
       style="fill:#000000;fill-opacity:1;fill-rule:nonzero;stroke:#000000;stroke-width:0.71;stroke-linecap:round;stroke-linejoin:round;stroke-miterlimit:10;stroke-dasharray:none;stroke-opacity:1"
       id="path106" /><path
       d="m 277.9,171.1 c 0,1.77 1.45,3.22 3.22,3.22 1.77,0 3.21,-1.45 3.21,-3.22 0,-1.76 -1.44,-3.21 -3.21,-3.21 -1.77,0 -3.22,1.45 -3.22,3.21"
       style="fill:#000000;fill-opacity:1;fill-rule:nonzero;stroke:#000000;stroke-width:0.71;stroke-linecap:round;stroke-linejoin:round;stroke-miterlimit:10;stroke-dasharray:none;stroke-opacity:1"
       id="path108" /><path
       d="m 236.73,240.88 c 0,1.24 1.01,2.25 2.25,2.25 1.24,0 2.25,-1.01 2.25,-2.25 0,-1.23 -1.01,-2.24 -2.25,-2.24 -1.24,0 -2.25,1.01 -2.25,2.24"
       style="fill:#000000;fill-opacity:1;fill-rule:nonzero;stroke:#000000;stroke-width:0.71;stroke-linecap:round;stroke-linejoin:round;stroke-miterlimit:10;stroke-dasharray:none;stroke-opacity:1"
       id="path110" /><path
       d="m 312.29,171.1 c 0,3.72 3.04,6.76 6.76,6.76 3.71,0 6.76,-3.04 6.76,-6.76 0,-3.71 -3.05,-6.75 -6.76,-6.75 -3.72,0 -6.76,3.04 -6.76,6.75"
       style="fill:#000000;fill-opacity:1;fill-rule:nonzero;stroke:#000000;stroke-width:0.71;stroke-linecap:round;stroke-linejoin:round;stroke-miterlimit:10;stroke-dasharray:none;stroke-opacity:1"
       id="path112" /><path
       d="m 214.84,101.33 c 0,2.21 1.81,4.01 4.02,4.01 2.21,0 4.02,-1.8 4.02,-4.01 0,-2.21 -1.81,-4.02 -4.02,-4.02 -2.21,0 -4.02,1.81 -4.02,4.02"
       style="fill:#000000;fill-opacity:1;fill-rule:nonzero;stroke:#000000;stroke-width:0.71;stroke-linecap:round;stroke-linejoin:round;stroke-miterlimit:10;stroke-dasharray:none;stroke-opacity:1"
       id="path114" /><path
       d="m 192.89,101.33 c 0,3.27 2.68,5.95 5.96,5.95 3.27,0 5.95,-2.68 5.95,-5.95 0,-3.28 -2.68,-5.96 -5.95,-5.96 -3.28,0 -5.96,2.68 -5.96,5.96"
       style="fill:#000000;fill-opacity:1;fill-rule:nonzero;stroke:#000000;stroke-width:0.71;stroke-linecap:round;stroke-linejoin:round;stroke-miterlimit:10;stroke-dasharray:none;stroke-opacity:1"
       id="path116" /><path
       d="m 314.96,101.33 c 0,2.25 1.84,4.09 4.09,4.09 2.25,0 4.09,-1.84 4.09,-4.09 0,-2.26 -1.84,-4.1 -4.09,-4.1 -2.25,0 -4.09,1.84 -4.09,4.1"
       style="fill:#000000;fill-opacity:1;fill-rule:nonzero;stroke:#000000;stroke-width:0.71;stroke-linecap:round;stroke-linejoin:round;stroke-miterlimit:10;stroke-dasharray:none;stroke-opacity:1"
       id="path118" /><path
       d="m 255.32,240.88 c 0,0.93 0.75,1.68 1.68,1.68 0.92,0 1.68,-0.75 1.68,-1.68 0,-0.92 -0.76,-1.68 -1.68,-1.68 -0.93,0 -1.68,0.76 -1.68,1.68"
       style="fill:#000000;fill-opacity:1;fill-rule:nonzero;stroke:#000000;stroke-width:0.71;stroke-linecap:round;stroke-linejoin:round;stroke-miterlimit:10;stroke-dasharray:none;stroke-opacity:1"
       id="path120" /><path
       d="m 266.58,240.88 c 0,0.78 0.64,1.42 1.42,1.42 0.79,0 1.43,-0.64 1.43,-1.42 0,-0.78 -0.64,-1.42 -1.43,-1.42 -0.78,0 -1.42,0.64 -1.42,1.42"
       style="fill:#000000;fill-opacity:1;fill-rule:nonzero;stroke:#000000;stroke-width:0.71;stroke-linecap:round;stroke-linejoin:round;stroke-miterlimit:10;stroke-dasharray:none;stroke-opacity:1"
       id="path122" /><path
       d="M 289.59119,317.97984 262.9,310.66"
       style="fill:none;stroke:#000000;stroke-width:1.07;stroke-linecap:round;stroke-linejoin:round;stroke-miterlimit:10;stroke-dasharray:none;stroke-opacity:1"
       id="path126"
       sodipodi:nodetypes="cc" /><path
       d="m 245.87,194.05 -6.78,-22.1"
       style="fill:none;stroke:#000000;stroke-width:1.07;stroke-linecap:round;stroke-linejoin:round;stroke-miterlimit:10;stroke-dasharray:none;stroke-opacity:1"
       id="path128" /><path
       d="m 220.74068,319.23429 10.84817,-8.80296"
       style="fill:none;stroke:#000000;stroke-width:1.07;stroke-linecap:round;stroke-linejoin:round;stroke-miterlimit:10;stroke-dasharray:none;stroke-opacity:1"
       id="path130"
       inkscape:transform-center-x="-19.80083"
       inkscape:transform-center-y="1.2913585"
       sodipodi:nodetypes="cc" /><path
       d="m 214.59283,256.6629 9.59867,-15.41654"
       style="fill:none;stroke:#000000;stroke-width:0.733305;stroke-linecap:round;stroke-linejoin:round;stroke-miterlimit:10;stroke-dasharray:none;stroke-opacity:1"
       id="path132" /><path
       d="M 343.25,186.77 320.03,171.74"
       style="fill:none;stroke:#000000;stroke-width:1.07;stroke-linecap:round;stroke-linejoin:round;stroke-miterlimit:10;stroke-dasharray:none;stroke-opacity:1"
       id="path134" /><path
       d="M 225.74803,107.44133 219.99,101.87"
       style="fill:none;stroke:#000000;stroke-width:1.07;stroke-linecap:round;stroke-linejoin:round;stroke-miterlimit:10;stroke-dasharray:none;stroke-opacity:1"
       id="path136"
       sodipodi:nodetypes="cc" /><path
       d="M 199.3168,102.76143 185.91542,90.320742"
       style="fill:none;stroke:#000000;stroke-width:1.07;stroke-linecap:round;stroke-linejoin:round;stroke-miterlimit:10;stroke-dasharray:none;stroke-opacity:1"
       id="path138"
       sodipodi:nodetypes="cc" /><path
       d="M 331.98596,107.8267 319.5,102.14"
       style="fill:none;stroke:#000000;stroke-width:1.07;stroke-linecap:round;stroke-linejoin:round;stroke-miterlimit:10;stroke-dasharray:none;stroke-opacity:1"
       id="path140"
       sodipodi:nodetypes="cc" /><path
       d="M 298.9,264.33 258.05,241.47"
       style="fill:none;stroke:#000000;stroke-width:1.07;stroke-linecap:round;stroke-linejoin:round;stroke-miterlimit:10;stroke-dasharray:none;stroke-opacity:1"
       id="path142" /><path
       d="m 318.31256,229.39086 -48.84512,10.5917"
       style="fill:none;stroke:#000000;stroke-width:1.20488;stroke-linecap:round;stroke-linejoin:round;stroke-miterlimit:10;stroke-dasharray:none;stroke-opacity:1"
       id="path144" /><text
       transform="scale(1,-1)"
       style="font-variant:normal;font-weight:normal;font-size:11px;font-family:Helvetica;-inkscape-font-specification:Helvetica;writing-mode:lr-tb;fill:#000000;fill-opacity:1;fill-rule:nonzero;stroke:none"
       id="text148"
       x="522.77002"
       y="-250.89"><tspan
         x="522.77002 530.10699 535.60699 538.04901 544.16498 550.28101 556.23199 561.73199 567.23199 570.28998 572.73199 578.84802 584.96399 591.08002 594.138 600.25403"
         y="-250.89"
         sodipodi:role="line"
         id="tspan146">Acinonyx jubatus</tspan></text><text
       transform="scale(1,-1)"
       style="font-variant:normal;font-weight:normal;font-size:11px;font-family:Helvetica;-inkscape-font-specification:Helvetica;writing-mode:lr-tb;fill:#000000;fill-opacity:1;fill-rule:nonzero;stroke:none"
       id="text152"
       x="147.14"
       y="-229.61"><tspan
         x="147.14 155.082 161.198 167.314 169.756 175.256 178.314 184.43001 190.54601 194.209 200.325 206.44099"
         y="-229.61"
         sodipodi:role="line"
         id="tspan150">Canis aureus</tspan></text><text
       transform="scale(1,-1)"
       style="font-variant:normal;font-weight:normal;font-size:11px;font-family:Helvetica;-inkscape-font-specification:Helvetica;writing-mode:lr-tb;fill:#000000;fill-opacity:1;fill-rule:nonzero;stroke:none"
       id="text156"
       x="270.5"
       y="-321.23431"><tspan
         x="270.5 278.44199 284.55801 290.67401 293.116 298.616 301.67401 304.116 310.23199 313.29001 316.84299 322.95898 329.07501"
         y="-321.23431"
         sodipodi:role="line"
         id="tspan154">Canis latrans</tspan></text><text
       transform="scale(1,-1)"
       style="font-variant:normal;font-weight:normal;font-size:11px;font-family:Helvetica;-inkscape-font-specification:Helvetica;writing-mode:lr-tb;fill:#000000;fill-opacity:1;fill-rule:nonzero;stroke:none"
       id="text160"
       x="247.67"
       y="-191.42"><tspan
         x="247.67 255.612 261.728 267.84399 270.28601 275.78601 278.84399 281.28601 287.40201 293.51801 299.634"
         y="-191.42"
         sodipodi:role="line"
         id="tspan158">Canis lupus</tspan></text><text
       transform="scale(1,-1)"
       style="font-variant:normal;font-weight:normal;font-size:11px;font-family:Helvetica;-inkscape-font-specification:Helvetica;writing-mode:lr-tb;fill:#000000;fill-opacity:1;fill-rule:nonzero;stroke:none"
       id="text164"
       x="172.23"
       y="-321.01999"><tspan
         x="172.23 180.172 183.83501 189.951 195.451 201.567 204.625 210.741 213.799 219.29901 222.96201 229.078 234.578 240.694 243.75201"
         y="-321.01999"
         sodipodi:role="line"
         id="tspan162">Crocuta crocuta</tspan></text><text
       transform="scale(1,-1)"
       style="font-style:normal;font-variant:normal;font-weight:normal;font-stretch:normal;font-size:11px;font-family:Helvetica;-inkscape-font-specification:'Helvetica, Normal';font-variant-ligatures:normal;font-variant-caps:normal;font-variant-numeric:normal;font-variant-east-asian:normal;text-align:start;writing-mode:lr-tb;text-anchor:start;fill:#ff0000;fill-opacity:1;fill-rule:nonzero;stroke:none"
       id="text168"
       x="135.53104"
       y="-155.08"><tspan
         sodipodi:role="line"
         id="tspan609"
         x="135.53104"
         y="-155.08">Homo sapiens</tspan><tspan
         sodipodi:role="line"
         id="tspan611"
         x="135.53104"
         y="-141.33">(Usain Bolt)</tspan></text><text
       transform="scale(1,-1)"
       style="font-variant:normal;font-weight:normal;font-size:11px;font-family:Helvetica;-inkscape-font-specification:Helvetica;writing-mode:lr-tb;fill:#000000;fill-opacity:1;fill-rule:nonzero;stroke:none"
       id="text172"
       x="174.55"
       y="-261.20001"><tspan
         x="174.55 180.666 186.782 192.89799 199.01401 205.13 208.793 214.909 221.02499 226.52499 229.58301 235.69901 241.815 245.478 251.59399 257.70999 260.15201 262.59399"
         y="-261.20001"
         sodipodi:role="line"
         id="tspan170">Leopardus pardalis</tspan></text><text
       transform="scale(1,-1)"
       style="font-variant:normal;font-weight:normal;font-size:11px;font-family:Helvetica;-inkscape-font-specification:Helvetica;writing-mode:lr-tb;fill:#000000;fill-opacity:1;fill-rule:nonzero;stroke:none"
       id="text176"
       x="243.95999"
       y="-156.42999"><tspan
         x="243.95999 249.746 255.246 260.746 266.862 272.978 279.09399 282.15201 288.26801 290.70999 296.20999 299.26801 305.384"
         y="-156.42999"
         sodipodi:role="line"
         id="tspan174">Lycaon pictus</tspan></text><text
       transform="scale(1,-1)"
       style="font-variant:normal;font-weight:normal;font-size:11px;font-family:Helvetica;-inkscape-font-specification:Helvetica;writing-mode:lr-tb;fill:#000000;fill-opacity:1;fill-rule:nonzero;stroke:none"
       id="text180"
       x="216.49001"
       y="-218.92999"><tspan
         x="216.49001 222.276 227.776 233.892 239.392 242.45001 247.95001 254.06601 260.18201 266.298 272.414 278.53 284.646 290.146 292.58801"
         y="-218.92999"
         sodipodi:role="line"
         id="tspan178">Lynx canadensis</tspan></text><text
       transform="scale(1,-1)"
       style="font-variant:normal;font-weight:normal;font-size:11px;font-family:Helvetica;-inkscape-font-specification:Helvetica;writing-mode:lr-tb;fill:#000000;fill-opacity:1;fill-rule:nonzero;stroke:none"
       id="text184"
       x="345.04999"
       y="-183.86"><tspan
         x="345.04999 351.94699 358.06299 364.17899 367.237 373.353 379.46899 383.022 389.138 392.19601 394.638 400.754"
         y="-183.86"
         sodipodi:role="line"
         id="tspan182">Panthera leo</tspan></text><text
       transform="scale(1,-1)"
       style="font-variant:normal;font-weight:normal;font-size:11px;font-family:Helvetica;-inkscape-font-specification:Helvetica;writing-mode:lr-tb;fill:#000000;fill-opacity:1;fill-rule:nonzero;stroke:none"
       id="text188"
       x="206.95276"
       y="-112.62995"><tspan
         x="206.95276 213.84976 219.96576 226.08176 229.13976 235.25575 241.37175 244.92476 251.04077 254.09879 260.21478 266.33078 269.99377 276.10977 282.22577"
         y="-112.62995"
         sodipodi:role="line"
         id="tspan186">Panthera pardus</tspan></text><text
       transform="scale(1,-1)"
       style="font-variant:normal;font-weight:normal;font-size:11px;font-family:Helvetica;-inkscape-font-specification:Helvetica;writing-mode:lr-tb;fill:#000000;fill-opacity:1;fill-rule:nonzero;stroke:none"
       id="text192"
       x="152.03696"
       y="-79.057602"><tspan
         x="152.03696 158.93396 165.04996 171.16595 174.22395 180.33997 186.45596 190.00896 196.12495 199.18295 202.24095 204.68295 210.79897 214.62697 217.06895"
         y="-79.057602"
         sodipodi:role="line"
         id="tspan190">Panthera tigris</tspan></text><text
       transform="scale(1,-1)"
       style="font-variant:normal;font-weight:normal;font-size:11px;font-family:Helvetica;-inkscape-font-specification:Helvetica;writing-mode:lr-tb;fill:#000000;fill-opacity:1;fill-rule:nonzero;stroke:none"
       id="text196"
       x="312.41"
       y="-112.83"><tspan
         x="312.41 319.74701 325.86301 335.026 341.142 344.20001 349.70001 355.81601 361.93201 367.43201 373.548 375.98999 382.10599"
         y="-112.83"
         sodipodi:role="line"
         id="tspan194">Puma concolor</tspan></text><text
       transform="scale(1,-1)"
       style="font-variant:normal;font-weight:normal;font-size:11px;font-family:Helvetica;-inkscape-font-specification:Helvetica;writing-mode:lr-tb;fill:#000000;fill-opacity:1;fill-rule:nonzero;stroke:none"
       id="text200"
       x="300.70001"
       y="-261"><tspan
         x="300.70001 308.642 312.30499 318.42099 323.92099 329.20099 335.31699 341.43301 344.491 349.991 352.43301 358.54901 364.66501 368.328 374.444 380.56 386.67599 390.33899 396.45499 402.57101 408.68701 411.745 417.86099 423.97699"
         y="-261"
         sodipodi:role="line"
         id="tspan198">Urocyon cinereoargenteus</tspan></text><text
       transform="scale(1,-1)"
       style="font-variant:normal;font-weight:normal;font-size:11px;font-family:Helvetica;-inkscape-font-specification:Helvetica;writing-mode:lr-tb;fill:#000000;fill-opacity:1;fill-rule:nonzero;stroke:none"
       id="text204"
       x="320.17999"
       y="-226.2"><tspan
         x="320.17999 326.74701 332.86301 335.30499 341.42099 347.53699 353.03699 356.095 361.595 367.711 370.15298 376.26901 382.38501"
         y="-226.2"
         sodipodi:role="line"
         id="tspan202">Vulpes vulpes</tspan></text><g
       id="g206" /><g
       id="g208" /><g
       id="g210" /><g
       id="g212" /><g
       id="g214" /><g
       id="g216" /><g
       id="g218" /><g
       id="g220" /><g
       id="g222" /><g
       id="g224" /><g
       id="g226" /><g
       id="g228" /><g
       id="g230" /><g
       id="g232" /><g
       id="g234" /><g
       id="g236"><text
         transform="matrix(1,0,0,-1,56.2,97.02)"
         style="font-variant:normal;font-weight:normal;font-size:12px;font-family:Helvetica;-inkscape-font-specification:Helvetica;writing-mode:lr-tb;fill:#4d4d4d;fill-opacity:1;fill-rule:nonzero;stroke:none"
         id="text240"><tspan
           x="0 6.6719999 16.667999 23.1 29.771999 35.771999 42.444 45.108002 51.779999"
           y="0"
           sodipodi:role="line"
           id="tspan238">ambushing</tspan></text><text
         transform="matrix(1,0,0,-1,41.27,166.8)"
         style="font-variant:normal;font-weight:normal;font-size:12px;font-family:Helvetica;-inkscape-font-specification:Helvetica;writing-mode:lr-tb;fill:#4d4d4d;fill-opacity:1;fill-rule:nonzero;stroke:none"
         id="text244"><tspan
           x="0 6.6719999 10.668 17.34 24.011999 30.684 34.02 40.692001 47.363998 54.035999 57.372002 60.035999 66.708"
           y="0"
           sodipodi:role="line"
           id="tspan242">group hunting</tspan></text><text
         transform="matrix(1,0,0,-1,25.28,236.57)"
         style="font-variant:normal;font-weight:normal;font-size:12px;font-family:Helvetica;-inkscape-font-specification:Helvetica;writing-mode:lr-tb;fill:#4d4d4d;fill-opacity:1;fill-rule:nonzero;stroke:none"
         id="text248"><tspan
           x="0 6.6719999 13.344 17.34 23.34 30.011999 32.675999 36.012001 39.348 46.02 50.015999 56.688 63.360001 70.031998 73.367996 76.031998 82.704002"
           y="0"
           sodipodi:role="line"
           id="tspan246">pursuit predation</tspan></text><text
         transform="matrix(1,0,0,-1,25.28,312.83)"
         style="font-variant:normal;font-weight:normal;font-size:12px;font-family:Helvetica;-inkscape-font-specification:Helvetica;writing-mode:lr-tb;fill:#4d4d4d;fill-opacity:1;fill-rule:nonzero;stroke:none"
         id="text252"><tspan
           x="0 6.6719999 13.344 17.34 23.34 30.011999 32.675999 36.012001 39.348 46.02 50.015999 56.688 63.360001 70.031998 73.367996 76.031998 82.704002"
           y="0"
           sodipodi:role="line"
           id="tspan250">pursuit predation</tspan></text><text
         transform="matrix(1,0,0,-1,41.27,299.87)"
         style="font-variant:normal;font-weight:normal;font-size:12px;font-family:Helvetica;-inkscape-font-specification:Helvetica;writing-mode:lr-tb;fill:#4d4d4d;fill-opacity:1;fill-rule:nonzero;stroke:none"
         id="text256"><tspan
           x="0 6.6719999 10.668 17.34 24.011999 30.684 34.02 40.692001 47.363998 54.035999 57.372002 60.035999 66.708"
           y="0"
           sodipodi:role="line"
           id="tspan254">group hunting</tspan></text></g><g
       id="g258" /><g
       id="g260" /><g
       id="g262" /><g
       id="g264" /><g
       id="g266" /><g
       id="g268" /><g
       id="g270" /><g
       id="g272" /><g
       id="g274" /><g
       id="g276" /><g
       id="g278" /><g
       id="g280" /><g
       id="g282" /><g
       id="g284"><text
         transform="matrix(1,0,0,-1,135.56,44.12)"
         style="font-variant:normal;font-weight:normal;font-size:12px;font-family:Helvetica;-inkscape-font-specification:Helvetica;writing-mode:lr-tb;fill:#4d4d4d;fill-opacity:1;fill-rule:nonzero;stroke:none"
         id="text288"><tspan
           x="0 6.6719999 10.008"
           y="0"
           sodipodi:role="line"
           id="tspan286">1.0</tspan></text><text
         transform="matrix(1,0,0,-1,248.16,44.12)"
         style="font-variant:normal;font-weight:normal;font-size:12px;font-family:Helvetica;-inkscape-font-specification:Helvetica;writing-mode:lr-tb;fill:#4d4d4d;fill-opacity:1;fill-rule:nonzero;stroke:none"
         id="text292"><tspan
           x="0 6.6719999 10.008"
           y="0"
           sodipodi:role="line"
           id="tspan290">1.5</tspan></text><text
         transform="matrix(1,0,0,-1,360.75,44.12)"
         style="font-variant:normal;font-weight:normal;font-size:12px;font-family:Helvetica;-inkscape-font-specification:Helvetica;writing-mode:lr-tb;fill:#4d4d4d;fill-opacity:1;fill-rule:nonzero;stroke:none"
         id="text296"><tspan
           x="0 6.6719999 10.008"
           y="0"
           sodipodi:role="line"
           id="tspan294">2.0</tspan></text><text
         transform="matrix(1,0,0,-1,473.35,44.12)"
         style="font-variant:normal;font-weight:normal;font-size:12px;font-family:Helvetica;-inkscape-font-specification:Helvetica;writing-mode:lr-tb;fill:#4d4d4d;fill-opacity:1;fill-rule:nonzero;stroke:none"
         id="text300"><tspan
           x="0 6.6719999 10.008"
           y="0"
           sodipodi:role="line"
           id="tspan298">2.5</tspan></text><text
         transform="matrix(1,0,0,-1,585.95,44.12)"
         style="font-variant:normal;font-weight:normal;font-size:12px;font-family:Helvetica;-inkscape-font-specification:Helvetica;writing-mode:lr-tb;fill:#4d4d4d;fill-opacity:1;fill-rule:nonzero;stroke:none"
         id="text304"><tspan
           x="0 6.6719999 10.008"
           y="0"
           sodipodi:role="line"
           id="tspan302">3.0</tspan></text></g><g
       id="g306" /><g
       id="g308" /><g
       id="g310" /><g
       id="g312" /><g
       id="g314" /><g
       id="g316"><text
         transform="matrix(1,0,0,-1,288.08,10.77)"
         style="font-variant:normal;font-weight:normal;font-size:15px;font-family:Helvetica;-inkscape-font-specification:Helvetica;writing-mode:lr-tb;fill:#000000;fill-opacity:1;fill-rule:nonzero;stroke:none"
         id="text320"><tspan
           x="0 12.495 20.834999 28.334999 31.665001 44.009998 52.349998 64.845001 69.014999 74.010002 82.349998 85.68 94.019997 98.190002 101.52 108.645 116.985 121.155 128.655 136.995 145.33501 153.675"
           y="0"
           sodipodi:role="line"
           id="tspan318">Maximum relative speed</tspan></text></g><g
       id="g322" /><g
       id="g324" /><g
       id="g326" /><g
       id="g328" /><g
       id="g330" /><g
       id="g332" /><g
       id="g334" /><g
       id="g336" /><g
       id="g338" /><g
       id="g340" /><g
       id="g342" /><g
       id="g344" /><g
       id="g346" /><g
       id="g348"><text
         transform="matrix(1,0,0,-1,639.22,230.26)"
         style="font-variant:normal;font-weight:normal;font-size:15px;font-family:Helvetica;-inkscape-font-specification:Helvetica;writing-mode:lr-tb;fill:#000000;fill-opacity:1;fill-rule:nonzero;stroke:none"
         id="text352"><tspan
           x="0 12.495 20.834999 28.334999 35.834999 40.005001 45 52.5 60.84"
           y="0"
           sodipodi:role="line"
           id="tspan350">Mass (kg)</tspan></text></g><g
       id="g354" /><g
       id="g356" /><g
       id="g358" /><g
       id="g360" /><g
       id="g362"><path
         d="m 643.87,212.5 c 0,2.2 1.8,3.99 3.99,3.99 2.2,0 3.99,-1.79 3.99,-3.99 0,-2.19 -1.79,-3.99 -3.99,-3.99 -2.19,0 -3.99,1.8 -3.99,3.99"
         style="fill:#000000;fill-opacity:1;fill-rule:nonzero;stroke:#000000;stroke-width:0.71;stroke-linecap:round;stroke-linejoin:round;stroke-miterlimit:10;stroke-dasharray:none;stroke-opacity:1"
         id="path364" /></g><g
       id="g366" /><g
       id="g368" /><g
       id="g370" /><g
       id="g372"><path
         d="m 642.71,195.22 c 0,2.84 2.32,5.16 5.15,5.16 2.84,0 5.16,-2.32 5.16,-5.16 0,-2.83 -2.32,-5.15 -5.16,-5.15 -2.83,0 -5.15,2.32 -5.15,5.15"
         style="fill:#000000;fill-opacity:1;fill-rule:nonzero;stroke:#000000;stroke-width:0.71;stroke-linecap:round;stroke-linejoin:round;stroke-miterlimit:10;stroke-dasharray:none;stroke-opacity:1"
         id="path374" /></g><g
       id="g376" /><g
       id="g378" /><g
       id="g380" /><g
       id="g382"><path
         d="m 641.83,177.94 c 0,3.32 2.71,6.04 6.03,6.04 3.32,0 6.03,-2.72 6.03,-6.04 0,-3.32 -2.71,-6.03 -6.03,-6.03 -3.32,0 -6.03,2.71 -6.03,6.03"
         style="fill:#000000;fill-opacity:1;fill-rule:nonzero;stroke:#000000;stroke-width:0.71;stroke-linecap:round;stroke-linejoin:round;stroke-miterlimit:10;stroke-dasharray:none;stroke-opacity:1"
         id="path384" /></g><g
       id="g386" /><g
       id="g388" /><g
       id="g390" /><g
       id="g392"><text
         transform="matrix(1,0,0,-1,663.97,208.19)"
         style="font-variant:normal;font-weight:normal;font-size:12px;font-family:Helvetica;-inkscape-font-specification:Helvetica;writing-mode:lr-tb;fill:#000000;fill-opacity:1;fill-rule:nonzero;stroke:none"
         id="text396"><tspan
           x="0 6.6719999"
           y="0"
           sodipodi:role="line"
           id="tspan394">50</tspan></text></g><g
       id="g398" /><g
       id="g400" /><g
       id="g402" /><g
       id="g404" /><g
       id="g406"><text
         transform="matrix(1,0,0,-1,663.97,190.91)"
         style="font-variant:normal;font-weight:normal;font-size:12px;font-family:Helvetica;-inkscape-font-specification:Helvetica;writing-mode:lr-tb;fill:#000000;fill-opacity:1;fill-rule:nonzero;stroke:none"
         id="text410"><tspan
           x="0 6.6719999 13.344"
           y="0"
           sodipodi:role="line"
           id="tspan408">100</tspan></text></g><g
       id="g412" /><g
       id="g414" /><g
       id="g416" /><g
       id="g418" /><g
       id="g420"><text
         transform="matrix(1,0,0,-1,663.97,173.63)"
         style="font-variant:normal;font-weight:normal;font-size:12px;font-family:Helvetica;-inkscape-font-specification:Helvetica;writing-mode:lr-tb;fill:#000000;fill-opacity:1;fill-rule:nonzero;stroke:none"
         id="text424"><tspan
           x="0 6.6719999 13.344"
           y="0"
           sodipodi:role="line"
           id="tspan422">150</tspan></text></g><g
       id="g426" /><g
       id="g428" /><g
       id="g430" /><g
       id="g432" /><g
       id="g434" /><g
       id="g436" /><g
       id="g438" /><g
       id="g440" /><g
       id="g442" /><g
       id="g444" /><g
       id="g446" /><g
       id="g448" /><g
       id="g450" /><path
       d="m 245.78439,229.0942 -7.7858,13.19085"
       style="fill:none;stroke:#000000;stroke-width:0.784267;stroke-linecap:round;stroke-linejoin:round;stroke-miterlimit:10;stroke-dasharray:none;stroke-opacity:1"
       id="path144-4"
       sodipodi:nodetypes="cc" /></g></svg>
