<?xml version="1.0" encoding="UTF-8" standalone="no"?>
<svg
   xmlns:dc="http://purl.org/dc/elements/1.1/"
   xmlns:cc="http://creativecommons.org/ns#"
   xmlns:rdf="http://www.w3.org/1999/02/22-rdf-syntax-ns#"
   xmlns:svg="http://www.w3.org/2000/svg"
   xmlns="http://www.w3.org/2000/svg"
   xmlns:sodipodi="http://sodipodi.sourceforge.net/DTD/sodipodi-0.dtd"
   xmlns:inkscape="http://www.inkscape.org/namespaces/inkscape"
   version="1.1"
   id="svg10"
   xml:space="preserve"
   width="960"
   height="478.66666"
   viewBox="0 0 960 478.66666"
   sodipodi:docname="Figure1.svg"
   inkscape:version="1.0.2 (e86c8708, 2021-01-15)"><metadata
     id="metadata16"><rdf:RDF><cc:Work
         rdf:about=""><dc:format>image/svg+xml</dc:format><dc:type
           rdf:resource="http://purl.org/dc/dcmitype/StillImage" /></cc:Work></rdf:RDF></metadata><defs
     id="defs14" /><sodipodi:namedview
     pagecolor="#ffffff"
     bordercolor="#666666"
     borderopacity="1"
     objecttolerance="10"
     gridtolerance="10"
     guidetolerance="10"
     inkscape:pageopacity="0"
     inkscape:pageshadow="2"
     inkscape:window-width="1454"
     inkscape:window-height="894"
     id="namedview12"
     showgrid="false"
     inkscape:zoom="1.096875"
     inkscape:cx="560.70685"
     inkscape:cy="305.39465"
     inkscape:window-x="319"
     inkscape:window-y="72"
     inkscape:window-maximized="0"
     inkscape:current-layer="g18" /><g
     id="g18"
     inkscape:groupmode="layer"
     inkscape:label="Figure1"
     transform="matrix(1.3333333,0,0,-1.3333333,0,478.66667)"><path
       d="M 85.58,103.21 H 568.84 V 136.5 H 85.58 Z"
       style="fill:#bebebe;fill-opacity:0.298;fill-rule:nonzero;stroke:none"
       id="path200" /><g
       id="g20" /><g
       id="g22" /><g
       id="g24" /><g
       id="g26" /><g
       id="g28" /><g
       id="g30" /><g
       id="g32" /><g
       id="g34" /><g
       id="g36" /><g
       id="g38" /><g
       id="g40" /><g
       id="g42" /><g
       id="g44" /><g
       id="g46" /><g
       id="g48" /><g
       id="g50" /><g
       id="g52" /><g
       id="g54" /><g
       id="g56" /><g
       id="g58" /><g
       id="g60" /><g
       id="g62" /><g
       id="g64" /><g
       id="g66" /><g
       id="g68" /><g
       id="g70" /><g
       id="g72" /><g
       id="g74" /><g
       id="g76" /><g
       id="g78" /><path
       d="M 139.28,83.73 H 568.85"
       style="fill:none;stroke:#ebebeb;stroke-width:0.73;stroke-linecap:butt;stroke-linejoin:round;stroke-miterlimit:10;stroke-dasharray:none;stroke-opacity:1"
       id="path82" /><path
       d="M 139.28,136.56 H 568.85"
       style="fill:none;stroke:#ebebeb;stroke-width:0.73;stroke-linecap:butt;stroke-linejoin:round;stroke-miterlimit:10;stroke-dasharray:none;stroke-opacity:1"
       id="path84" /><path
       d="M 139.28,178.43 H 568.85"
       style="fill:none;stroke:#ebebeb;stroke-width:0.73;stroke-linecap:butt;stroke-linejoin:round;stroke-miterlimit:10;stroke-dasharray:none;stroke-opacity:1"
       id="path86" /><path
       d="M 139.28,213.34 H 568.85"
       style="fill:none;stroke:#ebebeb;stroke-width:0.73;stroke-linecap:butt;stroke-linejoin:round;stroke-miterlimit:10;stroke-dasharray:none;stroke-opacity:1"
       id="path88" /><path
       d="M 139.28,259.23 H 568.85"
       style="fill:none;stroke:#ebebeb;stroke-width:0.73;stroke-linecap:butt;stroke-linejoin:round;stroke-miterlimit:10;stroke-dasharray:none;stroke-opacity:1"
       id="path90" /><path
       d="M 139.28,312.06 H 568.85"
       style="fill:none;stroke:#ebebeb;stroke-width:0.73;stroke-linecap:butt;stroke-linejoin:round;stroke-miterlimit:10;stroke-dasharray:none;stroke-opacity:1"
       id="path92" /><path
       d="M 139.28,338.47 H 568.85"
       style="fill:none;stroke:#ebebeb;stroke-width:0.73;stroke-linecap:butt;stroke-linejoin:round;stroke-miterlimit:10;stroke-dasharray:none;stroke-opacity:1"
       id="path94" /><path
       d="M 139.28,57.32 H 568.85"
       style="fill:none;stroke:#ebebeb;stroke-width:1.45;stroke-linecap:butt;stroke-linejoin:round;stroke-miterlimit:10;stroke-dasharray:none;stroke-opacity:1"
       id="path96" /><path
       d="M 139.28,110.15 H 568.85"
       style="fill:none;stroke:#ebebeb;stroke-width:1.45;stroke-linecap:butt;stroke-linejoin:round;stroke-miterlimit:10;stroke-dasharray:none;stroke-opacity:1"
       id="path98" /><path
       d="M 139.28,162.98 H 568.85"
       style="fill:none;stroke:#ebebeb;stroke-width:1.45;stroke-linecap:butt;stroke-linejoin:round;stroke-miterlimit:10;stroke-dasharray:none;stroke-opacity:1"
       id="path100" /><path
       d="M 139.28,193.88 H 568.85"
       style="fill:none;stroke:#ebebeb;stroke-width:1.45;stroke-linecap:butt;stroke-linejoin:round;stroke-miterlimit:10;stroke-dasharray:none;stroke-opacity:1"
       id="path102" /><path
       d="M 139.28,232.81 H 568.85"
       style="fill:none;stroke:#ebebeb;stroke-width:1.45;stroke-linecap:butt;stroke-linejoin:round;stroke-miterlimit:10;stroke-dasharray:none;stroke-opacity:1"
       id="path104" /><path
       d="M 139.28,285.64 H 568.85"
       style="fill:none;stroke:#ebebeb;stroke-width:1.45;stroke-linecap:butt;stroke-linejoin:round;stroke-miterlimit:10;stroke-dasharray:none;stroke-opacity:1"
       id="path106" /><path
       d="M 219.82,43.26 V 352.53"
       style="fill:none;stroke:#ebebeb;stroke-width:1.45;stroke-linecap:butt;stroke-linejoin:round;stroke-miterlimit:10;stroke-dasharray:none;stroke-opacity:1"
       id="path108" /><path
       d="M 354.06,43.26 V 352.53"
       style="fill:none;stroke:#ebebeb;stroke-width:1.45;stroke-linecap:butt;stroke-linejoin:round;stroke-miterlimit:10;stroke-dasharray:none;stroke-opacity:1"
       id="path110" /><path
       d="M 488.3,43.26 V 352.53"
       style="fill:none;stroke:#ebebeb;stroke-width:1.45;stroke-linecap:butt;stroke-linejoin:round;stroke-miterlimit:10;stroke-dasharray:none;stroke-opacity:1"
       id="path112" /><path
       d="m 350.51,112.95 h 7.11 v 7.11 h -7.11 z"
       style="fill:#e39856;fill-opacity:1;fill-rule:nonzero;stroke:none"
       id="path114" /><path
       d="m 488.3,317.52 4.79,-8.29 h -9.57 z"
       style="fill:#e39856;fill-opacity:1;fill-rule:nonzero;stroke:none"
       id="path116" /><path
       d="m 349.01,128.34 h 7.11 v 7.11 h -7.11 z"
       style="fill:#32665a;fill-opacity:1;fill-rule:nonzero;stroke:none"
       id="path118" /><path
       d="m 352.01,122.76 h 7.11 v 7.11 h -7.11 z"
       style="fill:#32665a;fill-opacity:1;fill-rule:nonzero;stroke:none"
       id="path120" /><path
       d="m 484.75,153.39 h 7.11 v 7.11 h -7.11 z"
       style="fill:#e39856;fill-opacity:1;fill-rule:nonzero;stroke:none"
       id="path122" /><path
       d="m 350.51,217.13 h 7.11 v 7.12 h -7.11 z"
       style="fill:#808133;fill-opacity:1;fill-rule:nonzero;stroke:none"
       id="path124" /><path
       d="m 216.27,91.02 h 7.11 v 7.11 h -7.11 z"
       style="fill:#e39856;fill-opacity:1;fill-rule:nonzero;stroke:none"
       id="path126" /><path
       d="m 350.51,80.11 h 7.11 v 7.11 h -7.11 z"
       style="fill:#32665a;fill-opacity:1;fill-rule:nonzero;stroke:none"
       id="path128" /><path
       d="m 348.54419,215.16419 c 0,1.95 1.6,3.55 3.55,3.55 1.96,0 3.56,-1.6 3.56,-3.55 0,-1.96 -1.6,-3.56 -3.56,-3.56 -1.95,0 -3.55,1.6 -3.55,3.56"
       style="fill:#808133;fill-opacity:1;fill-rule:nonzero;stroke:none"
       id="path130" /><path
       d="m 484.75,161.87 h 7.11 v 7.11 h -7.11 z"
       style="fill:#e39856;fill-opacity:1;fill-rule:nonzero;stroke:none"
       id="path132" /><path
       d="m 216.27,176.43 h 7.11 v 7.11 h -7.11 z"
       style="fill:#32665a;fill-opacity:1;fill-rule:nonzero;stroke:none"
       id="path134" /><path
       d="m 349.04,209.77 h 10.05"
       style="fill:none;stroke:#32665a;stroke-width:0.71;stroke-linecap:round;stroke-linejoin:round;stroke-miterlimit:10;stroke-dasharray:none;stroke-opacity:1"
       id="path136" /><path
       d="m 354.06,203.8853 v 10.06"
       style="fill:none;stroke:#32665a;stroke-width:0.71;stroke-linecap:round;stroke-linejoin:round;stroke-miterlimit:10;stroke-dasharray:none;stroke-opacity:1"
       id="path138" /><path
       d="m 214.8,123.77 h 10.05"
       style="fill:none;stroke:#e39856;stroke-width:0.71;stroke-linecap:round;stroke-linejoin:round;stroke-miterlimit:10;stroke-dasharray:none;stroke-opacity:1"
       id="path140" /><path
       d="m 219.82,118.74 v 10.05"
       style="fill:none;stroke:#e39856;stroke-width:0.71;stroke-linecap:round;stroke-linejoin:round;stroke-miterlimit:10;stroke-dasharray:none;stroke-opacity:1"
       id="path142" /><path
       d="m 362.51,77.53 -7.49,5.44"
       style="fill:none;stroke:#32665a;stroke-width:1.07;stroke-linecap:round;stroke-linejoin:round;stroke-miterlimit:10;stroke-dasharray:none;stroke-opacity:1"
       id="path144" /><path
       d="m 318.6,216.31 34.11,-2.1"
       style="fill:none;stroke:#808133;stroke-width:1.07;stroke-linecap:round;stroke-linejoin:round;stroke-miterlimit:10;stroke-dasharray:none;stroke-opacity:1"
       id="path146" /><text
       transform="scale(1,-1)"
       style="font-variant:normal;font-weight:normal;font-size:11px;font-family:Helvetica;-inkscape-font-specification:Helvetica;writing-mode:lr-tb;fill:#e39856;fill-opacity:1;fill-rule:nonzero;stroke:none"
       id="text150"
       x="317.48999"
       y="-103.99"><tspan
         x="317.48999 325.43201 331.548 337.664 343.78 346.83801 352.95401 359.07001 362.12799 365.79099 373.12799 378.62799 381.07001 387.186 393.302 399.25299 404.75299 410.25299"
         y="-103.99"
         sodipodi:role="line"
         id="tspan148">Cheetah (Acinonyx)</tspan></text><text
       transform="scale(1,-1)"
       style="font-variant:normal;font-weight:normal;font-size:11px;font-family:Helvetica;-inkscape-font-specification:Helvetica;writing-mode:lr-tb;fill:#e39856;fill-opacity:1;fill-rule:nonzero;stroke:none"
       id="text154"
       x="451.98001"
       y="-321.16"><tspan
         x="451.98001 459.31699 465.43301 471.54901 475.21201 478.26999 481.93301 489.26999 495.38599 499.21399 501.65601 507.772 510.82999 516.94598 523.06201 526.89001 529.33197 535.448 544.61102"
         y="-321.16"
         sodipodi:role="line"
         id="tspan152">Bear (Agriotherium)</tspan></text><text
       transform="scale(1,-1)"
       style="font-variant:normal;font-weight:normal;font-size:11px;font-family:Helvetica;-inkscape-font-specification:Helvetica;writing-mode:lr-tb;fill:#32665a;fill-opacity:1;fill-rule:nonzero;stroke:none"
       id="text158"
       x="277.39999"
       y="-138.11"><tspan
         x="277.39999 285.34201 290.62201 296.73801 302.854 308.97 312.02798 315.69101 323.633 329.74899 335.86499 341.36499 350.52798 356.64401 362.76001 368.87601 372.979 376.03699 382.15298 388.26901 391.327 397.44299 402.94299"
         y="-138.11"
         sodipodi:role="line"
         id="tspan156">Hyena (Chasmaporthetes)</tspan></text><text
       transform="scale(1,-1)"
       style="font-variant:normal;font-weight:normal;font-size:11px;font-family:Helvetica;-inkscape-font-specification:Helvetica;writing-mode:lr-tb;fill:#32665a;fill-opacity:1;fill-rule:nonzero;stroke:none"
       id="text162"
       x="361.89001"
       y="-119.88"><tspan
         x="361.89001 369.832 375.112 381.228 387.34399 393.45999 396.51801 400.181 408.12302 411.78601 417.90201 423.40201 429.51801 432.57599 438.69202"
         y="-119.88"
         sodipodi:role="line"
         id="tspan160">Hyena (Crocuta)</tspan></text><text
       transform="scale(1,-1)"
       style="font-variant:normal;font-weight:normal;font-size:11px;font-family:Helvetica;-inkscape-font-specification:Helvetica;writing-mode:lr-tb;fill:#e39856;fill-opacity:1;fill-rule:nonzero;stroke:none"
       id="text166"
       x="422.62"
       y="-144.33"><tspan
         x="422.62 429.957 436.073 442.189 448.30499 451.96799 458.392 461.45001 467.56601 473.68201 476.73999 482.85599 488.97198 495.08801 498.146 503.646 509.76199 512.82001 515.87799 519.54102 527.48297 529.92499 536.04102 542.15698 544.88501 551.00098 553.44299 555.88501 561.38501"
         y="-144.33"
         sodipodi:role="line"
         id="tspan164">Saber−toothed cat (Dinofelis)</tspan></text><text
       transform="scale(1,-1)"
       style="font-variant:normal;font-weight:normal;font-size:11px;font-family:Helvetica;-inkscape-font-specification:Helvetica;writing-mode:lr-tb;fill:#808133;fill-opacity:1;fill-rule:nonzero;stroke:none"
       id="text170"
       x="323.84"
       y="-226.48"><tspan
         x="323.84 331.177 336.677 339.11899 348.28201 350.724 353.78201 359.89801 363.561 369.98499 373.043 379.159 385.27499 388.33301 394.44901 400.565 406.681 409.73901 415.23901 421.35501 424.41299 427.47101 431.134 439.07599 445.19199 454.35501 460.47101 463.52899 469.64499 475.76102 479.58899 482.03101 488.147 497.31"
         y="-226.48"
         sodipodi:role="line"
         id="tspan168">Scimitar−toothed cat (Homotherium)</tspan></text><text
       transform="scale(1,-1)"
       style="font-style:normal;font-variant:normal;font-weight:normal;font-stretch:normal;font-size:11px;font-family:Helvetica;-inkscape-font-specification:'Helvetica, Normal';font-variant-ligatures:normal;font-variant-caps:normal;font-variant-numeric:normal;font-variant-east-asian:normal;text-align:center;writing-mode:lr-tb;text-anchor:middle;fill:#e39856;fill-opacity:1;fill-rule:nonzero;stroke:none"
       id="text174"
       x="220.26746"
       y="-79.029999"><tspan
         sodipodi:role="line"
         id="tspan658"
         x="220.26746"
         y="-79.029999">Hyena</tspan><tspan
         sodipodi:role="line"
         id="tspan660"
         x="220.26746"
         y="-65.279999">(Hyaena, Parahyaena, Pliocrocuta)</tspan></text><text
       transform="scale(1,-1)"
       style="font-variant:normal;font-weight:normal;font-size:11px;font-family:Helvetica;-inkscape-font-specification:Helvetica;writing-mode:lr-tb;fill:#32665a;fill-opacity:1;fill-rule:nonzero;stroke:none"
       id="text178"
       x="354.35001"
       y="-67.839996"><tspan
         x="354.35001 361.68701 364.745 368.573 371.01501 376.51501 382.63101 388.74701 391.80499 399.74701 402.189 404.63101 410.74701 413.80499 419.92099 426.03699 432.15302 435.211 438.87399 444.66 450.16 455.66 461.776 467.892 474.008"
         y="-67.839996"
         sodipodi:role="line"
         id="tspan176">African wild dog (Lycaon)</tspan></text><text
       transform="scale(1,-1)"
       style="font-variant:normal;font-weight:normal;font-size:11px;font-family:Helvetica;-inkscape-font-specification:Helvetica;writing-mode:lr-tb;fill:#808133;fill-opacity:1;fill-rule:nonzero;stroke:none"
       id="text182"
       x="142.88"
       y="-212.37"><tspan
         x="142.88 150.217 155.717 158.159 167.32201 169.76401 172.82201 178.938 182.601 189.02499 192.08299 198.19901 204.315 207.373 213.489 219.605 225.72101 228.77901 234.27901 240.395 243.453 246.511 250.174 259.33701 265.453 270.953 277.069 283.185 285.62698 289.29001 295.40601 301.522 307.638 313.138"
         y="-212.37"
         sodipodi:role="line"
         id="tspan180">Scimitar−toothed cat (Machairodus)</tspan></text><text
       transform="scale(1,-1)"
       style="font-variant:normal;font-weight:normal;font-size:11px;font-family:Helvetica;-inkscape-font-specification:Helvetica;writing-mode:lr-tb;fill:#e39856;fill-opacity:1;fill-rule:nonzero;stroke:none"
       id="text186"
       x="393.41"
       y="-170.35001"><tspan
         x="393.41 400.74701 406.86301 412.979 419.095 422.758 429.18201 432.23999 438.35599 444.47202 447.53 453.646 459.76199 465.87799 468.936 474.436 480.552 483.60999 486.668 490.33099 499.49399 505.60999 511.72601 517.84198 523.95801 527.01599 533.13202 536.79498 542.91101 549.02698 555.14301"
         y="-170.35001"
         sodipodi:role="line"
         id="tspan184">Saber−toothed cat (Megantereon)</tspan></text><text
       transform="scale(1,-1)"
       style="font-variant:normal;font-weight:normal;font-size:11px;font-family:Helvetica;-inkscape-font-specification:Helvetica;writing-mode:lr-tb;fill:#32665a;fill-opacity:1;fill-rule:nonzero;stroke:none"
       id="text190"
       x="153.81"
       y="-167.48"><tspan
         x="153.81 161.752 167.032 173.14799 179.26401 185.38 188.438 192.101 198.998 205.114 210.614 216.39999 221.89999 227.39999 231.063 237.179 242.679 248.795 251.853 257.96899"
         y="-167.48"
         sodipodi:role="line"
         id="tspan188">Hyena (Pachycrocuta)</tspan></text><text
       transform="scale(1,-1)"
       style="font-variant:normal;font-weight:normal;font-size:11px;font-family:Helvetica;-inkscape-font-specification:Helvetica;writing-mode:lr-tb;fill:#32665a;fill-opacity:1;fill-rule:nonzero;stroke:none"
       id="text194"
       x="319.42001"
       y="-194.19"><tspan
         x="319.42001 325.53601 327.978 334.09399 340.20999 343.26801 346.931 353.828 359.944 366.06 369.11801 375.23401 381.35001 384.90302 391.01901 394.077 396.51901 402.63501 408.75101"
         y="-194.19"
         sodipodi:role="line"
         id="tspan192">Lion (Panthera leo)</tspan></text><text
       transform="scale(1,-1)"
       style="font-variant:normal;font-weight:normal;font-size:11px;font-family:Helvetica;-inkscape-font-specification:Helvetica;writing-mode:lr-tb;fill:#e39856;fill-opacity:1;fill-rule:nonzero;stroke:none"
       id="text198"
       x="159.07001"
       y="-111.09"><tspan
         x="159.07001 165.186 171.302 177.418 183.534 189.64999 193.313 199.429 202.487 206.15001 213.487 216.545 219.603 225.71901 231.83501 235.498 241.614 247.73001 253.23001"
         y="-111.09"
         sodipodi:role="line"
         id="tspan196">Leopard (P. pardus)</tspan></text><text
       transform="scale(1,-1)"
       style="font-variant:normal;font-weight:normal;font-size:11px;font-family:Helvetica;-inkscape-font-specification:Helvetica;writing-mode:lr-tb;fill:#a9a9a9;fill-opacity:1;fill-rule:nonzero;stroke:none"
       id="text204"
       x="24.780001"
       y="-99.260002"><tspan
         x="24.780001 32.117001 35.174999 38.233002 44.348999 47.077 53.193001 56.855999 62.972 69.087997 74.587997 77.029999 82.529999"
         y="-99.260002"
         sodipodi:role="line"
         id="tspan202">A. afarensis </tspan></text><text
       transform="scale(1,-1)"
       style="font-variant:normal;font-weight:normal;font-size:11px;font-family:Helvetica;-inkscape-font-specification:Helvetica;writing-mode:lr-tb;fill:#a9a9a9;fill-opacity:1;fill-rule:nonzero;stroke:none"
       id="text208"
       x="30.559999"
       y="-132.55"><tspan
         x="30.559999 38.501999 41.560001 44.618 50.118 56.234001 62.350002 64.792 70.907997 77.024002 82.524002"
         y="-132.55"
         sodipodi:role="line"
         id="tspan206">H. sapiens </tspan></text><g
       id="g210" /><g
       id="g212" /><g
       id="g214" /><g
       id="g216" /><g
       id="g218" /><g
       id="g220" /><g
       id="g222" /><g
       id="g224" /><g
       id="g226" /><g
       id="g228" /><g
       id="g230" /><g
       id="g232" /><g
       id="g234" /><g
       id="g236" /><g
       id="g238" /><g
       id="g240"><text
         transform="matrix(1,0,0,-1,115.87,53.01)"
         style="font-variant:normal;font-weight:normal;font-size:12px;font-family:Helvetica;-inkscape-font-specification:Helvetica;writing-mode:lr-tb;fill:#4d4d4d;fill-opacity:1;fill-rule:nonzero;stroke:none"
         id="text244"><tspan
           x="0 6.6719999 10.008"
           y="0"
           sodipodi:role="line"
           id="tspan242">0.5</tspan></text><text
         transform="matrix(1,0,0,-1,115.87,105.84)"
         style="font-variant:normal;font-weight:normal;font-size:12px;font-family:Helvetica;-inkscape-font-specification:Helvetica;writing-mode:lr-tb;fill:#4d4d4d;fill-opacity:1;fill-rule:nonzero;stroke:none"
         id="text248"><tspan
           x="0 6.6719999 10.008"
           y="0"
           sodipodi:role="line"
           id="tspan246">1.0</tspan></text><text
         transform="matrix(1,0,0,-1,115.87,158.67)"
         style="font-variant:normal;font-weight:normal;font-size:12px;font-family:Helvetica;-inkscape-font-specification:Helvetica;writing-mode:lr-tb;fill:#4d4d4d;fill-opacity:1;fill-rule:nonzero;stroke:none"
         id="text252"><tspan
           x="0 6.6719999 10.008"
           y="0"
           sodipodi:role="line"
           id="tspan250">2.0</tspan></text><text
         transform="matrix(1,0,0,-1,115.87,189.57)"
         style="font-variant:normal;font-weight:normal;font-size:12px;font-family:Helvetica;-inkscape-font-specification:Helvetica;writing-mode:lr-tb;fill:#4d4d4d;fill-opacity:1;fill-rule:nonzero;stroke:none"
         id="text256"><tspan
           x="0 6.6719999 10.008"
           y="0"
           sodipodi:role="line"
           id="tspan254">3.0</tspan></text><text
         transform="matrix(1,0,0,-1,115.87,228.5)"
         style="font-variant:normal;font-weight:normal;font-size:12px;font-family:Helvetica;-inkscape-font-specification:Helvetica;writing-mode:lr-tb;fill:#4d4d4d;fill-opacity:1;fill-rule:nonzero;stroke:none"
         id="text260"><tspan
           x="0 6.6719999 10.008"
           y="0"
           sodipodi:role="line"
           id="tspan258">5.0</tspan></text><text
         transform="matrix(1,0,0,-1,109.2,281.33)"
         style="font-variant:normal;font-weight:normal;font-size:12px;font-family:Helvetica;-inkscape-font-specification:Helvetica;writing-mode:lr-tb;fill:#4d4d4d;fill-opacity:1;fill-rule:nonzero;stroke:none"
         id="text264"><tspan
           x="0 6.6719999 13.344 16.68"
           y="0"
           sodipodi:role="line"
           id="tspan262">10.0</tspan></text></g><g
       id="g266" /><g
       id="g268" /><g
       id="g270" /><g
       id="g272" /><g
       id="g274" /><g
       id="g276" /><g
       id="g278" /><g
       id="g280" /><g
       id="g282" /><g
       id="g284" /><g
       id="g286" /><g
       id="g288" /><g
       id="g290" /><g
       id="g292"><text
         transform="matrix(1,0,0,-1,213.82,27.92)"
         style="font-variant:normal;font-weight:normal;font-size:12px;font-family:Helvetica;-inkscape-font-specification:Helvetica;writing-mode:lr-tb;fill:#4d4d4d;fill-opacity:1;fill-rule:nonzero;stroke:none"
         id="text296"><tspan
           x="0 6.6719999 9.3360004"
           y="0"
           sodipodi:role="line"
           id="tspan294">all</tspan></text><text
         transform="matrix(1,0,0,-1,311.6,27.92)"
         style="font-variant:normal;font-weight:normal;font-size:12px;font-family:Helvetica;-inkscape-font-specification:Helvetica;writing-mode:lr-tb;fill:#4d4d4d;fill-opacity:1;fill-rule:nonzero;stroke:none"
         id="text300"><tspan
           x="0 6.6719999 13.344 20.016001 26.688 33.695999 42.240002 48.911999 55.584 62.256001 64.919998 71.592003 78.264"
           y="0"
           sodipodi:role="line"
           id="tspan298">open&gt;woodland</tspan></text><text
         transform="matrix(1,0,0,-1,445.84,27.92)"
         style="font-variant:normal;font-weight:normal;font-size:12px;font-family:Helvetica;-inkscape-font-specification:Helvetica;writing-mode:lr-tb;fill:#4d4d4d;fill-opacity:1;fill-rule:nonzero;stroke:none"
         id="text304"><tspan
           x="0 8.5439997 15.216 21.888 28.559999 31.224001 37.896 44.568001 51.240002 58.248001 64.919998 71.592003 78.264"
           y="0"
           sodipodi:role="line"
           id="tspan302">woodland&gt;open</tspan></text></g><g
       id="g306" /><g
       id="g308" /><g
       id="g310" /><g
       id="g312" /><g
       id="g314" /><g
       id="g316" /><g
       id="g318" /><g
       id="g320"><text
         transform="matrix(1,0,0,-1,7.47,341.76)"
         style="font-variant:normal;font-weight:normal;font-size:15px;font-family:Helvetica;-inkscape-font-specification:Helvetica;writing-mode:lr-tb;fill:#000000;fill-opacity:1;fill-rule:nonzero;stroke:none"
         id="text324"><tspan
           x="0 10.005 18.344999 26.684999 34.185001 38.355 45.855 49.185001 56.459999 64.800003 68.970001 73.815002 82.154999 86.324997 89.654999"
           y="0"
           sodipodi:role="line"
           id="tspan322">Body size ratio</tspan></text></g><g
       id="g326" /><g
       id="g328" /><g
       id="g330" /><g
       id="g332" /><g
       id="g334" /><g
       id="g336" /><g
       id="g338" /><g
       id="g340" /><g
       id="g342" /><g
       id="g344" /><g
       id="g346" /><g
       id="g348"><text
         transform="matrix(1,0,0,-1,591.26,282.44)"
         style="font-variant:normal;font-weight:normal;font-size:15px;font-family:Helvetica;-inkscape-font-specification:Helvetica;writing-mode:lr-tb;fill:#000000;fill-opacity:1;fill-rule:nonzero;stroke:none"
         id="text352"><tspan
           x="0 11.67 16.665001 25.004999 33.345001 41.685001 45.014999 53.355"
           y="0"
           sodipodi:role="line"
           id="tspan350">Grouping</tspan></text></g><g
       id="g354" /><g
       id="g356" /><g
       id="g358" /><g
       id="g360" /><g
       id="g362"><path
         d="m 596.35,264.68 c 0,1.95 1.6,3.55 3.55,3.55 1.96,0 3.56,-1.6 3.56,-3.55 0,-1.96 -1.6,-3.56 -3.56,-3.56 -1.95,0 -3.55,1.6 -3.55,3.56"
         style="fill:#32665a;fill-opacity:1;fill-rule:nonzero;stroke:#32665a;stroke-width:0.71;stroke-linecap:round;stroke-linejoin:round;stroke-miterlimit:10;stroke-dasharray:none;stroke-opacity:1"
         id="path364" /></g><g
       id="g366" /><g
       id="g368" /><g
       id="g370" /><g
       id="g372"><path
         d="m 596.35,247.4 c 0,1.95 1.6,3.55 3.55,3.55 1.96,0 3.56,-1.6 3.56,-3.55 0,-1.96 -1.6,-3.56 -3.56,-3.56 -1.95,0 -3.55,1.6 -3.55,3.56"
         style="fill:#808133;fill-opacity:1;fill-rule:nonzero;stroke:#808133;stroke-width:0.71;stroke-linecap:round;stroke-linejoin:round;stroke-miterlimit:10;stroke-dasharray:none;stroke-opacity:1"
         id="path374" /></g><g
       id="g376" /><g
       id="g378" /><g
       id="g380" /><g
       id="g382"><path
         d="m 596.35,230.12 c 0,1.95 1.6,3.55 3.55,3.55 1.96,0 3.56,-1.6 3.56,-3.55 0,-1.96 -1.6,-3.56 -3.56,-3.56 -1.95,0 -3.55,1.6 -3.55,3.56"
         style="fill:#e39856;fill-opacity:1;fill-rule:nonzero;stroke:#e39856;stroke-width:0.71;stroke-linecap:round;stroke-linejoin:round;stroke-miterlimit:10;stroke-dasharray:none;stroke-opacity:1"
         id="path384" /></g><g
       id="g386" /><g
       id="g388" /><g
       id="g390" /><g
       id="g392"><text
         transform="matrix(1,0,0,-1,616.02,260.37)"
         style="font-variant:normal;font-weight:normal;font-size:12px;font-family:Helvetica;-inkscape-font-specification:Helvetica;writing-mode:lr-tb;fill:#000000;fill-opacity:1;fill-rule:nonzero;stroke:none"
         id="text396"><tspan
           x="0 6.6719999 13.344 19.344"
           y="0"
           sodipodi:role="line"
           id="tspan394">pack</tspan></text></g><g
       id="g398" /><g
       id="g400" /><g
       id="g402" /><g
       id="g404" /><g
       id="g406"><text
         transform="matrix(1,0,0,-1,616.02,243.09)"
         style="font-variant:normal;font-weight:normal;font-size:12px;font-family:Helvetica;-inkscape-font-specification:Helvetica;writing-mode:lr-tb;fill:#000000;fill-opacity:1;fill-rule:nonzero;stroke:none"
         id="text410"><tspan
           x="0 6.6719999 13.344 19.344 25.344"
           y="0"
           sodipodi:role="line"
           id="tspan408">pack?</tspan></text></g><g
       id="g412" /><g
       id="g414" /><g
       id="g416" /><g
       id="g418" /><g
       id="g420"><text
         transform="matrix(1,0,0,-1,616.02,225.81)"
         style="font-variant:normal;font-weight:normal;font-size:12px;font-family:Helvetica;-inkscape-font-specification:Helvetica;writing-mode:lr-tb;fill:#000000;fill-opacity:1;fill-rule:nonzero;stroke:none"
         id="text424"><tspan
           x="0 6 12.672 15.336 18 21.336 28.007999 32.363998"
           y="0"
           sodipodi:role="line"
           id="tspan422">solitary</tspan></text></g><g
       id="g426" /><g
       id="g428" /><g
       id="g430" /><g
       id="g432" /><g
       id="g434" /><g
       id="g436" /><g
       id="g438" /><g
       id="g440" /><g
       id="g442"><text
         transform="matrix(1,0,0,-1,591.26,179.17)"
         style="font-variant:normal;font-weight:normal;font-size:15px;font-family:Helvetica;-inkscape-font-specification:Helvetica;writing-mode:lr-tb;fill:#000000;fill-opacity:1;fill-rule:nonzero;stroke:none"
         id="text446"><tspan
           x="0 10.005 18.344999 26.684999 34.185001"
           y="0"
           sodipodi:role="line"
           id="tspan444">Epoch</tspan></text></g><g
       id="g448" /><g
       id="g450" /><g
       id="g452" /><g
       id="g454" /><g
       id="g456"><path
         d="m 596.35,161.41 c 0,1.95 1.6,3.55 3.55,3.55 1.96,0 3.56,-1.6 3.56,-3.55 0,-1.96 -1.6,-3.56 -3.56,-3.56 -1.95,0 -3.55,1.6 -3.55,3.56"
         style="fill:#000000;fill-opacity:1;fill-rule:nonzero;stroke:none"
         id="path458" /></g><g
       id="g460" /><g
       id="g462" /><g
       id="g464" /><g
       id="g466"><path
         d="m 599.9,149.66 4.79,-8.3 h -9.57 z"
         style="fill:#000000;fill-opacity:1;fill-rule:nonzero;stroke:none"
         id="path468" /></g><g
       id="g470" /><g
       id="g472" /><g
       id="g474" /><g
       id="g476"><path
         d="m 596.35,123.29 h 7.11 v 7.11 h -7.11 z"
         style="fill:#000000;fill-opacity:1;fill-rule:nonzero;stroke:none"
         id="path478" /></g><g
       id="g480" /><g
       id="g482" /><g
       id="g484" /><g
       id="g486"><path
         d="m 594.88,109.57 h 10.05"
         style="fill:none;stroke:#000000;stroke-width:0.71;stroke-linecap:round;stroke-linejoin:round;stroke-miterlimit:10;stroke-dasharray:none;stroke-opacity:1"
         id="path488" /><path
         d="M 599.9,104.54 V 114.6"
         style="fill:none;stroke:#000000;stroke-width:0.71;stroke-linecap:round;stroke-linejoin:round;stroke-miterlimit:10;stroke-dasharray:none;stroke-opacity:1"
         id="path490" /></g><g
       id="g492" /><g
       id="g494" /><g
       id="g496" /><g
       id="g498"><text
         transform="matrix(1,0,0,-1,616.02,157.1)"
         style="font-variant:normal;font-weight:normal;font-size:12px;font-family:Helvetica;-inkscape-font-specification:Helvetica;writing-mode:lr-tb;fill:#000000;fill-opacity:1;fill-rule:nonzero;stroke:none"
         id="text502"><tspan
           x="0 9.9960003 12.66 19.332001 25.332001 32.004002 38.675999"
           y="0"
           sodipodi:role="line"
           id="tspan500">Miocene</tspan></text></g><g
       id="g504" /><g
       id="g506" /><g
       id="g508" /><g
       id="g510" /><g
       id="g512"><text
         transform="matrix(1,0,0,-1,616.02,139.82)"
         style="font-variant:normal;font-weight:normal;font-size:12px;font-family:Helvetica;-inkscape-font-specification:Helvetica;writing-mode:lr-tb;fill:#000000;fill-opacity:1;fill-rule:nonzero;stroke:none"
         id="text516"><tspan
           x="0 8.0039997 10.668 13.332 20.004 26.004 32.675999 39.348"
           y="0"
           sodipodi:role="line"
           id="tspan514">Pliocene</tspan></text></g><g
       id="g518" /><g
       id="g520" /><g
       id="g522" /><g
       id="g524" /><g
       id="g526"><text
         transform="matrix(1,0,0,-1,616.02,122.54)"
         style="font-variant:normal;font-weight:normal;font-size:12px;font-family:Helvetica;-inkscape-font-specification:Helvetica;writing-mode:lr-tb;fill:#000000;fill-opacity:1;fill-rule:nonzero;stroke:none"
         id="text530"><tspan
           x="0 8.0039997 10.668 13.332 20.004 27.011999 35.015999 37.68 44.352001 47.015999 53.015999 56.352001 63.023998 69.024002 75.695999 82.367996"
           y="0"
           sodipodi:role="line"
           id="tspan528">Plio−Pleistocene</tspan></text></g><g
       id="g532" /><g
       id="g534" /><g
       id="g536" /><g
       id="g538" /><g
       id="g540"><text
         transform="matrix(1,0,0,-1,616.02,105.26)"
         style="font-variant:normal;font-weight:normal;font-size:12px;font-family:Helvetica;-inkscape-font-specification:Helvetica;writing-mode:lr-tb;fill:#000000;fill-opacity:1;fill-rule:nonzero;stroke:none"
         id="text544"><tspan
           x="0 8.0039997 10.668 17.34 20.004 26.004 29.34 36.012001 42.012001 48.683998 55.355999"
           y="0"
           sodipodi:role="line"
           id="tspan542">Pleistocene</tspan></text></g><g
       id="g546" /><g
       id="g548" /><g
       id="g550" /><g
       id="g552" /><g
       id="g554" /><g
       id="g556" /><g
       id="g558" /><g
       id="g560" /><g
       id="g562" /><g
       id="g564" /><g
       id="g566" /><g
       id="g568" /><g
       id="g570" /></g></svg>
