<?xml version="1.0" encoding="UTF-8" standalone="no"?>
<!-- Created with Inkscape (http://www.inkscape.org/) -->

<svg
   width="243.2711mm"
   height="59.536457mm"
   viewBox="0 0 243.2711 59.536457"
   version="1.1"
   id="svg1"
   inkscape:version="1.4.3 (0d15f75, 2025-12-25)"
   sodipodi:docname="familynumbers.svg"
   xmlns:inkscape="http://www.inkscape.org/namespaces/inkscape"
   xmlns:sodipodi="http://sodipodi.sourceforge.net/DTD/sodipodi-0.dtd"
   xmlns="http://www.w3.org/2000/svg"
   xmlns:svg="http://www.w3.org/2000/svg">
  <sodipodi:namedview
     id="namedview1"
     pagecolor="#ffffff"
     bordercolor="#000000"
     borderopacity="0.25"
     inkscape:showpageshadow="2"
     inkscape:pageopacity="0.0"
     inkscape:pagecheckerboard="0"
     inkscape:deskcolor="#d1d1d1"
     inkscape:document-units="mm"
     inkscape:zoom="0.89887065"
     inkscape:cx="460.57795"
     inkscape:cy="111.80697"
     inkscape:window-width="1024"
     inkscape:window-height="1186"
     inkscape:window-x="0"
     inkscape:window-y="30"
     inkscape:window-maximized="0"
     inkscape:current-layer="layer1" />
  <defs
     id="defs1">
    <clipPath
       id="cpMTkwLjIwfDQyNi40MHw1My4wNnwxODMuNzM=">
      <rect
         x="190.2"
         y="53.060001"
         width="236.2"
         height="130.67"
         id="rect13" />
    </clipPath>
    <clipPath
       id="cpNDMzLjg4fDY3MC4wOHw1My4wNnwxODMuNzM=">
      <rect
         x="433.88"
         y="53.060001"
         width="236.2"
         height="130.67"
         id="rect42" />
    </clipPath>
    <clipPath
       id="cpMTkwLjIwfDQyNi40MHwyOS44NHw1My4wNg==">
      <rect
         x="190.2"
         y="29.84"
         width="236.2"
         height="23.219999"
         id="rect71" />
    </clipPath>
    <clipPath
       id="cpNDMzLjg4fDY3MC4wOHwyOS44NHw1My4wNg==">
      <rect
         x="433.88"
         y="29.84"
         width="236.2"
         height="23.219999"
         id="rect73" />
    </clipPath>
    <clipPath
       id="cpMC4wMHw3OTIuMDB8MC4wMHw3MjAuMDA=">
      <rect
         x="0"
         y="0"
         width="792"
         height="720"
         id="rect2" />
    </clipPath>
  </defs>
  <g
     inkscape:label="Layer 1"
     inkscape:groupmode="layer"
     id="layer1"
     transform="translate(16.668748,-118.79791)">
    <g
       clip-path="url(#cpMTkwLjIwfDQyNi40MHw1My4wNnwxODMuNzM=)"
       id="g41"
       transform="matrix(0.35277777,0,0,0.35277777,-48.06207,113.51851)">
      <rect
         x="190.2"
         y="53.060001"
         width="236.2"
         height="130.67"
         style="fill:#ffffff;stroke:none;stroke-width:1.45;stroke-linecap:round;stroke-linejoin:round;stroke-miterlimit:10"
         id="rect14" />
      <polyline
         points="190.20,157.09 426.40,157.09 "
         style="fill:none;stroke:#000000;stroke-width:0.073;stroke-linecap:butt;stroke-linejoin:round;stroke-miterlimit:10"
         id="polyline14" />
      <polyline
         points="190.20,115.69 426.40,115.69 "
         style="fill:none;stroke:#000000;stroke-width:0.073;stroke-linecap:butt;stroke-linejoin:round;stroke-miterlimit:10"
         id="polyline15" />
      <polyline
         points="190.20,74.29 426.40,74.29 "
         style="fill:none;stroke:#000000;stroke-width:0.073;stroke-linecap:butt;stroke-linejoin:round;stroke-miterlimit:10"
         id="polyline16" />
      <polyline
         points="236.73,183.73 236.73,53.06 "
         style="fill:none;stroke:#000000;stroke-width:0.073;stroke-linecap:butt;stroke-linejoin:round;stroke-miterlimit:10"
         id="polyline17" />
      <polyline
         points="308.30,183.73 308.30,53.06 "
         style="fill:none;stroke:#000000;stroke-width:0.073;stroke-linecap:butt;stroke-linejoin:round;stroke-miterlimit:10"
         id="polyline18" />
      <polyline
         points="379.88,183.73 379.88,53.06 "
         style="fill:none;stroke:#000000;stroke-width:0.073;stroke-linecap:butt;stroke-linejoin:round;stroke-miterlimit:10"
         id="polyline19" />
      <polyline
         points="190.20,177.79 426.40,177.79 "
         style="fill:none;stroke:#000000;stroke-width:0.15;stroke-linecap:butt;stroke-linejoin:round;stroke-miterlimit:10"
         id="polyline20" />
      <polyline
         points="190.20,136.39 426.40,136.39 "
         style="fill:none;stroke:#000000;stroke-width:0.15;stroke-linecap:butt;stroke-linejoin:round;stroke-miterlimit:10"
         id="polyline21" />
      <polyline
         points="190.20,94.99 426.40,94.99 "
         style="fill:none;stroke:#000000;stroke-width:0.15;stroke-linecap:butt;stroke-linejoin:round;stroke-miterlimit:10"
         id="polyline22" />
      <polyline
         points="190.20,53.60 426.40,53.60 "
         style="fill:none;stroke:#000000;stroke-width:0.15;stroke-linecap:butt;stroke-linejoin:round;stroke-miterlimit:10"
         id="polyline23" />
      <polyline
         points="200.94,183.73 200.94,53.06 "
         style="fill:none;stroke:#000000;stroke-width:0.15;stroke-linecap:butt;stroke-linejoin:round;stroke-miterlimit:10"
         id="polyline24" />
      <polyline
         points="272.51,183.73 272.51,53.06 "
         style="fill:none;stroke:#000000;stroke-width:0.15;stroke-linecap:butt;stroke-linejoin:round;stroke-miterlimit:10"
         id="polyline25" />
      <polyline
         points="344.09,183.73 344.09,53.06 "
         style="fill:none;stroke:#000000;stroke-width:0.15;stroke-linecap:butt;stroke-linejoin:round;stroke-miterlimit:10"
         id="polyline26" />
      <polyline
         points="415.67,183.73 415.67,53.06 "
         style="fill:none;stroke:#000000;stroke-width:0.15;stroke-linecap:butt;stroke-linejoin:round;stroke-miterlimit:10"
         id="polyline27" />
      <polyline
         points="200.94,115.18 204.52,119.96 208.09,121.87 211.67,102.80 215.25,107.91 218.83,110.12 222.41,92.15 225.99,97.26 229.57,99.56 233.15,82.55 236.73,87.59 240.30,89.92 243.88,73.86 247.46,78.77 251.04,81.12 254.62,66.00 258.20,70.81 261.78,73.19 265.36,59.00 268.93,63.74 272.51,78.47 276.09,65.04 279.67,69.57 283.25,83.73 286.83,71.04 290.41,75.38 293.99,88.96 297.57,77.02 301.14,81.18 304.72,94.19 308.30,83.06 311.88,87.04 315.46,99.47 319.04,89.22 322.62,93.01 326.20,104.87 329.78,95.58 333.35,99.17 336.93,110.47 340.51,102.23 344.09,105.59 347.67,116.34 351.25,109.21 354.83,112.31 358.41,122.50 361.98,116.52 365.56,119.31 369.14,128.90 372.72,124.07 376.30,126.51 379.88,135.42 383.46,131.72 387.04,133.77 390.62,141.96 394.19,139.31 397.77,140.96 401.35,148.34 404.93,146.62 408.51,147.88 412.09,154.39 415.67,153.39 "
         style="fill:none;stroke:#30123b;stroke-width:1.45;stroke-linecap:butt;stroke-linejoin:round;stroke-miterlimit:10"
         id="polyline28" />
      <polyline
         points="200.94,115.18 204.52,120.00 208.09,121.97 211.67,102.96 215.25,108.12 218.83,110.39 222.41,92.46 225.99,97.62 229.57,99.96 233.15,83.00 236.73,88.07 240.30,90.45 243.88,74.44 247.46,79.40 251.04,81.80 254.62,66.72 258.20,71.59 261.78,74.02 265.36,59.87 268.93,64.66 272.51,79.44 276.09,66.06 279.67,70.64 283.25,84.85 286.83,72.20 290.41,76.59 293.99,90.21 297.57,78.32 301.14,82.52 304.72,95.57 308.30,84.48 311.88,88.51 315.46,100.99 319.04,90.78 322.62,94.61 326.20,106.52 329.78,97.26 333.35,100.88 336.93,112.22 340.51,103.99 344.09,107.35 347.67,118.10 351.25,110.95 354.83,114.01 358.41,124.15 361.98,118.11 365.56,120.83 369.14,130.32 372.72,125.40 376.30,127.75 379.88,136.56 383.46,132.75 387.04,134.70 390.62,142.78 394.19,140.03 397.77,141.60 401.35,148.90 404.93,147.10 408.51,148.28 412.09,154.73 415.67,153.67 "
         style="fill:none;stroke:#30123b;stroke-width:1.45;stroke-linecap:butt;stroke-linejoin:round;stroke-miterlimit:10"
         id="polyline29" />
      <polyline
         points="200.94,156.57 204.52,160.80 208.09,162.16 211.67,142.51 215.25,147.04 218.83,148.67 222.41,130.10 225.99,134.61 229.57,136.31 233.15,118.70 236.73,123.11 240.30,124.82 243.88,108.14 247.46,112.42 251.04,114.14 254.62,98.38 258.20,102.56 261.78,104.31 265.36,89.48 268.93,93.59 272.51,107.68 276.09,93.62 279.67,97.51 283.25,111.04 286.83,97.71 290.41,101.40 293.99,114.33 297.57,101.74 301.14,105.24 304.72,117.58 308.30,105.77 311.88,109.06 315.46,120.79 319.04,109.83 322.62,112.90 326.20,124.03 329.78,113.99 333.35,116.82 336.93,127.35 340.51,118.32 344.09,120.90 347.67,130.85 351.25,122.91 354.83,125.20 358.41,134.59 361.98,127.80 365.56,129.80 369.14,138.60 372.72,133.01 376.30,134.70 379.88,142.89 383.46,138.49 387.04,139.87 390.62,147.41 394.19,144.15 397.77,145.23 401.35,152.07 404.93,149.86 408.51,150.65 412.09,156.75 415.67,155.38 "
         style="fill:none;stroke:#28bbec;stroke-width:1.45;stroke-linecap:butt;stroke-linejoin:round;stroke-miterlimit:10"
         id="polyline30" />
      <polyline
         points="200.94,156.57 204.52,160.80 208.09,162.16 211.67,142.51 215.25,147.04 218.83,148.67 222.41,130.10 225.99,134.61 229.57,136.31 233.15,118.70 236.73,123.11 240.30,124.82 243.88,108.14 247.46,112.42 251.04,114.14 254.62,98.38 258.20,102.56 261.78,104.31 265.36,89.48 268.93,93.59 272.51,107.68 276.09,93.62 279.67,97.51 283.25,111.04 286.83,97.71 290.41,101.40 293.99,114.33 297.57,101.74 301.14,105.24 304.72,117.58 308.30,105.77 311.88,109.06 315.46,120.79 319.04,109.83 322.62,112.90 326.20,124.03 329.78,113.99 333.35,116.82 336.93,127.35 340.51,118.32 344.09,120.90 347.67,130.85 351.25,122.91 354.83,125.20 358.41,134.59 361.98,127.80 365.56,129.80 369.14,138.60 372.72,133.01 376.30,134.70 379.88,142.89 383.46,138.49 387.04,139.87 390.62,147.41 394.19,144.15 397.77,145.23 401.35,152.07 404.93,149.86 408.51,150.65 412.09,156.75 415.67,155.38 "
         style="fill:none;stroke:#28bbec;stroke-width:1.45;stroke-linecap:butt;stroke-linejoin:round;stroke-miterlimit:10"
         id="polyline31" />
      <polyline
         points="200.94,136.39 204.52,136.94 208.09,137.51 211.67,138.08 215.25,138.66 218.83,139.24 222.41,139.84 225.99,140.43 229.57,141.04 233.15,141.65 236.73,142.27 240.30,142.89 243.88,143.51 247.46,144.14 251.04,144.77 254.62,145.40 258.20,146.04 261.78,146.67 265.36,147.31 268.93,147.94 272.51,148.58 276.09,149.21 279.67,149.85 283.25,150.48 286.83,151.12 290.41,151.77 293.99,152.42 297.57,153.07 301.14,153.74 304.72,154.41 308.30,155.09 311.88,155.77 315.46,156.47 319.04,157.18 322.62,157.90 326.20,158.64 329.78,159.38 333.35,160.14 336.93,160.91 340.51,161.69 344.09,162.48 347.67,163.29 351.25,164.09 354.83,164.90 358.41,165.71 361.98,166.51 365.56,167.30 369.14,168.08 372.72,168.85 376.30,169.60 379.88,170.32 383.46,171.03 387.04,171.70 390.62,172.34 394.19,172.95 397.77,173.52 401.35,174.06 404.93,174.56 408.51,175.02 412.09,175.43 415.67,175.80 "
         style="fill:none;stroke:#a2fc3c;stroke-width:1.45;stroke-linecap:butt;stroke-linejoin:round;stroke-miterlimit:10"
         id="polyline32" />
      <polyline
         points="200.94,136.39 204.52,136.99 208.09,137.60 211.67,138.23 215.25,138.87 218.83,139.51 222.41,140.15 225.99,140.79 229.57,141.44 233.15,142.09 236.73,142.75 240.30,143.42 243.88,144.09 247.46,144.77 251.04,145.45 254.62,146.13 258.20,146.81 261.78,147.50 265.36,148.18 268.93,148.86 272.51,149.55 276.09,150.23 279.67,150.92 283.25,151.60 286.83,152.29 290.41,152.98 293.99,153.67 297.57,154.37 301.14,155.07 304.72,155.79 308.30,156.51 311.88,157.24 315.46,157.98 319.04,158.74 322.62,159.50 326.20,160.28 329.78,161.07 333.35,161.86 336.93,162.66 340.51,163.45 344.09,164.25 347.67,165.04 351.25,165.83 354.83,166.60 358.41,167.36 361.98,168.10 365.56,168.82 369.14,169.51 372.72,170.19 376.30,170.84 379.88,171.46 383.46,172.05 387.04,172.62 390.62,173.16 394.19,173.68 397.77,174.16 401.35,174.61 404.93,175.04 408.51,175.42 412.09,175.77 415.67,176.08 "
         style="fill:none;stroke:#a2fc3c;stroke-width:1.45;stroke-linecap:butt;stroke-linejoin:round;stroke-miterlimit:10"
         id="polyline33" />
      <polyline
         points="200.94,157.09 204.52,157.36 208.09,157.63 211.67,157.91 215.25,158.20 218.83,158.48 222.41,158.77 225.99,159.05 229.57,159.33 233.15,159.62 236.73,159.90 240.30,160.19 243.88,160.48 247.46,160.77 251.04,161.06 254.62,161.35 258.20,161.63 261.78,161.91 265.36,162.18 268.93,162.45 272.51,162.72 276.09,162.98 279.67,163.24 283.25,163.50 286.83,163.76 290.41,164.01 293.99,164.27 297.57,164.53 301.14,164.80 304.72,165.07 308.30,165.34 311.88,165.63 315.46,165.92 319.04,166.22 322.62,166.53 326.20,166.85 329.78,167.18 333.35,167.52 336.93,167.86 340.51,168.22 344.09,168.59 347.67,168.97 351.25,169.35 354.83,169.74 358.41,170.14 361.98,170.54 365.56,170.95 369.14,171.36 372.72,171.77 376.30,172.19 379.88,172.60 383.46,173.01 387.04,173.41 390.62,173.81 394.19,174.20 397.77,174.58 401.35,174.95 404.93,175.30 408.51,175.62 412.09,175.92 415.67,176.20 "
         style="fill:none;stroke:#fb8022;stroke-width:1.45;stroke-linecap:butt;stroke-linejoin:round;stroke-miterlimit:10"
         id="polyline34" />
      <polyline
         points="200.94,157.09 204.52,157.36 208.09,157.63 211.67,157.91 215.25,158.20 218.83,158.48 222.41,158.77 225.99,159.05 229.57,159.33 233.15,159.62 236.73,159.90 240.30,160.19 243.88,160.48 247.46,160.77 251.04,161.06 254.62,161.35 258.20,161.63 261.78,161.91 265.36,162.18 268.93,162.45 272.51,162.72 276.09,162.98 279.67,163.24 283.25,163.50 286.83,163.76 290.41,164.01 293.99,164.27 297.57,164.53 301.14,164.80 304.72,165.07 308.30,165.34 311.88,165.63 315.46,165.92 319.04,166.22 322.62,166.53 326.20,166.85 329.78,167.18 333.35,167.52 336.93,167.86 340.51,168.22 344.09,168.59 347.67,168.97 351.25,169.35 354.83,169.74 358.41,170.14 361.98,170.54 365.56,170.95 369.14,171.36 372.72,171.77 376.30,172.19 379.88,172.60 383.46,173.01 387.04,173.41 390.62,173.81 394.19,174.20 397.77,174.58 401.35,174.95 404.93,175.30 408.51,175.62 412.09,175.92 415.67,176.20 "
         style="fill:none;stroke:#fb8022;stroke-width:1.45;stroke-linecap:butt;stroke-linejoin:round;stroke-miterlimit:10"
         id="polyline35" />
      <polyline
         points="200.94,157.09 204.52,157.38 208.09,157.67 211.67,157.96 215.25,158.25 218.83,158.55 222.41,158.86 225.99,159.18 229.57,159.50 233.15,159.82 236.73,160.15 240.30,160.49 243.88,160.82 247.46,161.16 251.04,161.50 254.62,161.85 258.20,162.20 261.78,162.56 265.36,162.92 268.93,163.28 272.51,163.65 276.09,164.02 279.67,164.40 283.25,164.78 286.83,165.16 290.41,165.55 293.99,165.94 297.57,166.33 301.14,166.73 304.72,167.13 308.30,167.53 311.88,167.94 315.46,168.34 319.04,168.75 322.62,169.16 326.20,169.58 329.78,170.00 333.35,170.42 336.93,170.84 340.51,171.26 344.09,171.69 347.67,172.11 351.25,172.53 354.83,172.95 358.41,173.36 361.98,173.76 365.56,174.14 369.14,174.52 372.72,174.87 376.30,175.20 379.88,175.52 383.46,175.81 387.04,176.07 390.62,176.32 394.19,176.54 397.77,176.73 401.35,176.90 404.93,177.05 408.51,177.19 412.09,177.30 415.67,177.40 "
         style="fill:none;stroke:#7a0403;stroke-width:1.45;stroke-linecap:butt;stroke-linejoin:round;stroke-miterlimit:10"
         id="polyline36" />
      <polyline
         points="200.94,157.09 204.52,157.42 208.09,157.76 211.67,158.11 215.25,158.46 218.83,158.82 222.41,159.17 225.99,159.53 229.57,159.90 233.15,160.27 236.73,160.64 240.30,161.02 243.88,161.40 247.46,161.79 251.04,162.18 254.62,162.58 258.20,162.98 261.78,163.38 265.36,163.79 268.93,164.20 272.51,164.62 276.09,165.04 279.67,165.46 283.25,165.89 286.83,166.32 290.41,166.76 293.99,167.19 297.57,167.63 301.14,168.07 304.72,168.51 308.30,168.96 311.88,169.40 315.46,169.86 319.04,170.31 322.62,170.77 326.20,171.22 329.78,171.68 333.35,172.13 336.93,172.58 340.51,173.02 344.09,173.45 347.67,173.87 351.25,174.27 354.83,174.65 358.41,175.01 361.98,175.34 365.56,175.66 369.14,175.94 372.72,176.21 376.30,176.44 379.88,176.65 383.46,176.84 387.04,177.00 390.62,177.14 394.19,177.26 397.77,177.37 401.35,177.46 404.93,177.53 408.51,177.59 412.09,177.64 415.67,177.68 "
         style="fill:none;stroke:#7a0403;stroke-width:1.45;stroke-linecap:butt;stroke-linejoin:round;stroke-miterlimit:10"
         id="polyline37" />
      <text
         x="344.09"
         y="66.900002"
         style="font-size:8.25px;font-family:Arial;white-space:pre;fill:#30123b"
         textLength="59.130001"
         lengthAdjust="spacingAndGlyphs"
         id="text37">Total family size</text>
      <text
         x="344.09"
         y="75.18"
         style="font-size:8.25px;font-family:Arial;white-space:pre;fill:#28bbec"
         textLength="63.73"
         lengthAdjust="spacingAndGlyphs"
         id="text38">Resident children</text>
      <text
         x="344.09"
         y="83.459999"
         style="font-size:8.25px;font-family:Arial;white-space:pre;fill:#a2fc3c"
         textLength="63.73"
         lengthAdjust="spacingAndGlyphs"
         id="text39">Surviving parents</text>
      <text
         x="344.09"
         y="91.739998"
         style="font-size:8.25px;font-family:Arial;white-space:pre;fill:#fb8022"
         textLength="56.849998"
         lengthAdjust="spacingAndGlyphs"
         id="text40">Surviving wives</text>
      <text
         x="344.09"
         y="100.02"
         style="font-size:8.25px;font-family:Arial;white-space:pre;fill:#7a0403"
         textLength="71.989998"
         lengthAdjust="spacingAndGlyphs"
         id="text41">Surviving husbands</text>
      <rect
         x="190.2"
         y="53.060001"
         width="236.2"
         height="130.67"
         style="fill:none;stroke:#000000;stroke-width:1.45;stroke-linecap:round;stroke-linejoin:round;stroke-miterlimit:10"
         id="rect41" />
    </g>
    <g
       clip-path="url(#cpNDMzLjg4fDY3MC4wOHw1My4wNnwxODMuNzM=)"
       id="g70"
       transform="matrix(0.35277777,0,0,0.35277777,-48.06207,113.51851)">
      <rect
         x="433.88"
         y="53.060001"
         width="236.2"
         height="130.67"
         style="fill:#ffffff;stroke:none;stroke-width:1.45;stroke-linecap:round;stroke-linejoin:round;stroke-miterlimit:10"
         id="rect43" />
      <polyline
         points="433.88,157.09 670.08,157.09 "
         style="fill:none;stroke:#000000;stroke-width:0.073;stroke-linecap:butt;stroke-linejoin:round;stroke-miterlimit:10"
         id="polyline43" />
      <polyline
         points="433.88,115.69 670.08,115.69 "
         style="fill:none;stroke:#000000;stroke-width:0.073;stroke-linecap:butt;stroke-linejoin:round;stroke-miterlimit:10"
         id="polyline44" />
      <polyline
         points="433.88,74.29 670.08,74.29 "
         style="fill:none;stroke:#000000;stroke-width:0.073;stroke-linecap:butt;stroke-linejoin:round;stroke-miterlimit:10"
         id="polyline45" />
      <polyline
         points="480.40,183.73 480.40,53.06 "
         style="fill:none;stroke:#000000;stroke-width:0.073;stroke-linecap:butt;stroke-linejoin:round;stroke-miterlimit:10"
         id="polyline46" />
      <polyline
         points="551.98,183.73 551.98,53.06 "
         style="fill:none;stroke:#000000;stroke-width:0.073;stroke-linecap:butt;stroke-linejoin:round;stroke-miterlimit:10"
         id="polyline47" />
      <polyline
         points="623.55,183.73 623.55,53.06 "
         style="fill:none;stroke:#000000;stroke-width:0.073;stroke-linecap:butt;stroke-linejoin:round;stroke-miterlimit:10"
         id="polyline48" />
      <polyline
         points="433.88,177.79 670.08,177.79 "
         style="fill:none;stroke:#000000;stroke-width:0.15;stroke-linecap:butt;stroke-linejoin:round;stroke-miterlimit:10"
         id="polyline49" />
      <polyline
         points="433.88,136.39 670.08,136.39 "
         style="fill:none;stroke:#000000;stroke-width:0.15;stroke-linecap:butt;stroke-linejoin:round;stroke-miterlimit:10"
         id="polyline50" />
      <polyline
         points="433.88,94.99 670.08,94.99 "
         style="fill:none;stroke:#000000;stroke-width:0.15;stroke-linecap:butt;stroke-linejoin:round;stroke-miterlimit:10"
         id="polyline51" />
      <polyline
         points="433.88,53.60 670.08,53.60 "
         style="fill:none;stroke:#000000;stroke-width:0.15;stroke-linecap:butt;stroke-linejoin:round;stroke-miterlimit:10"
         id="polyline52" />
      <polyline
         points="444.61,183.73 444.61,53.06 "
         style="fill:none;stroke:#000000;stroke-width:0.15;stroke-linecap:butt;stroke-linejoin:round;stroke-miterlimit:10"
         id="polyline53" />
      <polyline
         points="516.19,183.73 516.19,53.06 "
         style="fill:none;stroke:#000000;stroke-width:0.15;stroke-linecap:butt;stroke-linejoin:round;stroke-miterlimit:10"
         id="polyline54" />
      <polyline
         points="587.77,183.73 587.77,53.06 "
         style="fill:none;stroke:#000000;stroke-width:0.15;stroke-linecap:butt;stroke-linejoin:round;stroke-miterlimit:10"
         id="polyline55" />
      <polyline
         points="659.34,183.73 659.34,53.06 "
         style="fill:none;stroke:#000000;stroke-width:0.15;stroke-linecap:butt;stroke-linejoin:round;stroke-miterlimit:10"
         id="polyline56" />
      <polyline
         points="444.61,115.18 448.19,119.96 451.77,121.87 455.35,102.80 458.93,107.91 462.51,110.12 466.09,92.15 469.66,97.26 473.24,99.56 476.82,82.55 480.40,87.59 483.98,89.92 487.56,73.86 491.14,78.77 494.72,81.12 498.29,66.00 501.87,70.81 505.45,73.19 509.03,59.00 512.61,63.74 516.19,78.47 519.77,80.22 523.35,81.73 526.93,94.91 530.50,96.09 534.08,97.23 537.66,109.65 541.24,110.65 544.82,111.66 548.40,123.48 551.98,124.39 555.56,125.34 559.14,136.59 562.71,137.46 566.29,138.37 569.87,149.06 573.45,149.90 577.03,150.76 580.61,160.91 584.19,161.69 587.77,162.48 591.34,163.29 594.92,164.09 598.50,164.90 602.08,165.71 605.66,166.51 609.24,167.30 612.82,168.08 616.40,168.85 619.98,169.60 623.55,170.32 627.13,171.03 630.71,171.70 634.29,172.34 637.87,172.95 641.45,173.52 645.03,174.06 648.61,174.56 652.19,175.02 655.76,175.43 659.34,175.80 "
         style="fill:none;stroke:#30123b;stroke-width:1.45;stroke-linecap:butt;stroke-linejoin:round;stroke-miterlimit:10"
         id="polyline57" />
      <polyline
         points="444.61,115.18 448.19,120.00 451.77,121.97 455.35,102.96 458.93,108.12 462.51,110.39 466.09,92.46 469.66,97.62 473.24,99.96 476.82,83.00 480.40,88.07 483.98,90.45 487.56,74.44 491.14,79.40 494.72,81.80 498.29,66.72 501.87,71.59 505.45,74.02 509.03,59.87 512.61,64.66 516.19,79.44 519.77,81.24 523.35,82.79 526.93,96.03 530.50,97.25 534.08,98.44 537.66,110.90 541.24,111.94 544.82,112.99 548.40,124.85 551.98,125.82 555.56,126.80 559.14,138.10 562.71,139.02 566.29,139.97 569.87,150.71 573.45,151.59 577.03,152.48 580.61,162.66 584.19,163.45 587.77,164.25 591.34,165.04 594.92,165.83 598.50,166.60 602.08,167.36 605.66,168.10 609.24,168.82 612.82,169.51 616.40,170.19 619.98,170.84 623.55,171.46 627.13,172.05 630.71,172.62 634.29,173.16 637.87,173.68 641.45,174.16 645.03,174.61 648.61,175.04 652.19,175.42 655.76,175.77 659.34,176.08 "
         style="fill:none;stroke:#30123b;stroke-width:1.45;stroke-linecap:butt;stroke-linejoin:round;stroke-miterlimit:10"
         id="polyline58" />
      <polyline
         points="444.61,156.57 448.19,160.80 451.77,162.16 455.35,142.51 458.93,147.04 462.51,148.67 466.09,130.10 469.66,134.61 473.24,136.31 476.82,118.70 480.40,123.11 483.98,124.82 487.56,108.14 491.14,112.42 494.72,114.14 498.29,98.38 501.87,102.56 505.45,104.31 509.03,89.48 512.61,93.59 516.19,107.68 519.77,108.80 523.35,109.67 526.93,122.22 530.50,122.75 534.08,123.25 537.66,135.02 541.24,135.37 544.82,135.71 548.40,146.86 551.98,147.10 555.56,147.35 559.14,157.90 562.71,158.07 566.29,158.25 569.87,168.22 573.45,168.31 577.03,168.41 580.61,177.79 584.19,177.79 587.77,177.79 591.34,177.79 594.92,177.79 598.50,177.79 602.08,177.79 605.66,177.79 609.24,177.79 612.82,177.79 616.40,177.79 619.98,177.79 623.55,177.79 627.13,177.79 630.71,177.79 634.29,177.79 637.87,177.79 641.45,177.79 645.03,177.79 648.61,177.79 652.19,177.79 655.76,177.79 659.34,177.79 "
         style="fill:none;stroke:#28bbec;stroke-width:1.45;stroke-linecap:butt;stroke-linejoin:round;stroke-miterlimit:10"
         id="polyline59" />
      <polyline
         points="444.61,156.57 448.19,160.80 451.77,162.16 455.35,142.51 458.93,147.04 462.51,148.67 466.09,130.10 469.66,134.61 473.24,136.31 476.82,118.70 480.40,123.11 483.98,124.82 487.56,108.14 491.14,112.42 494.72,114.14 498.29,98.38 501.87,102.56 505.45,104.31 509.03,89.48 512.61,93.59 516.19,107.68 519.77,108.80 523.35,109.67 526.93,122.22 530.50,122.75 534.08,123.25 537.66,135.02 541.24,135.37 544.82,135.71 548.40,146.86 551.98,147.10 555.56,147.35 559.14,157.90 562.71,158.07 566.29,158.25 569.87,168.22 573.45,168.31 577.03,168.41 580.61,177.79 584.19,177.79 587.77,177.79 591.34,177.79 594.92,177.79 598.50,177.79 602.08,177.79 605.66,177.79 609.24,177.79 612.82,177.79 616.40,177.79 619.98,177.79 623.55,177.79 627.13,177.79 630.71,177.79 634.29,177.79 637.87,177.79 641.45,177.79 645.03,177.79 648.61,177.79 652.19,177.79 655.76,177.79 659.34,177.79 "
         style="fill:none;stroke:#28bbec;stroke-width:1.45;stroke-linecap:butt;stroke-linejoin:round;stroke-miterlimit:10"
         id="polyline60" />
      <polyline
         points="444.61,136.39 448.19,136.94 451.77,137.51 455.35,138.08 458.93,138.66 462.51,139.24 466.09,139.84 469.66,140.43 473.24,141.04 476.82,141.65 480.40,142.27 483.98,142.89 487.56,143.51 491.14,144.14 494.72,144.77 498.29,145.40 501.87,146.04 505.45,146.67 509.03,147.31 512.61,147.94 516.19,148.58 519.77,149.21 523.35,149.85 526.93,150.48 530.50,151.12 534.08,151.77 537.66,152.42 541.24,153.07 544.82,153.74 548.40,154.41 551.98,155.09 555.56,155.77 559.14,156.47 562.71,157.18 566.29,157.90 569.87,158.64 573.45,159.38 577.03,160.14 580.61,160.91 584.19,161.69 587.77,162.48 591.34,163.29 594.92,164.09 598.50,164.90 602.08,165.71 605.66,166.51 609.24,167.30 612.82,168.08 616.40,168.85 619.98,169.60 623.55,170.32 627.13,171.03 630.71,171.70 634.29,172.34 637.87,172.95 641.45,173.52 645.03,174.06 648.61,174.56 652.19,175.02 655.76,175.43 659.34,175.80 "
         style="fill:none;stroke:#a2fc3c;stroke-width:1.45;stroke-linecap:butt;stroke-linejoin:round;stroke-miterlimit:10"
         id="polyline61" />
      <polyline
         points="444.61,136.39 448.19,136.99 451.77,137.60 455.35,138.23 458.93,138.87 462.51,139.51 466.09,140.15 469.66,140.79 473.24,141.44 476.82,142.09 480.40,142.75 483.98,143.42 487.56,144.09 491.14,144.77 494.72,145.45 498.29,146.13 501.87,146.81 505.45,147.50 509.03,148.18 512.61,148.86 516.19,149.55 519.77,150.23 523.35,150.92 526.93,151.60 530.50,152.29 534.08,152.98 537.66,153.67 541.24,154.37 544.82,155.07 548.40,155.79 551.98,156.51 555.56,157.24 559.14,157.98 562.71,158.74 566.29,159.50 569.87,160.28 573.45,161.07 577.03,161.86 580.61,162.66 584.19,163.45 587.77,164.25 591.34,165.04 594.92,165.83 598.50,166.60 602.08,167.36 605.66,168.10 609.24,168.82 612.82,169.51 616.40,170.19 619.98,170.84 623.55,171.46 627.13,172.05 630.71,172.62 634.29,173.16 637.87,173.68 641.45,174.16 645.03,174.61 648.61,175.04 652.19,175.42 655.76,175.77 659.34,176.08 "
         style="fill:none;stroke:#a2fc3c;stroke-width:1.45;stroke-linecap:butt;stroke-linejoin:round;stroke-miterlimit:10"
         id="polyline62" />
      <polyline
         points="444.61,157.09 448.19,157.36 451.77,157.63 455.35,157.91 458.93,158.20 462.51,158.48 466.09,158.77 469.66,159.05 473.24,159.33 476.82,159.62 480.40,159.90 483.98,160.19 487.56,160.48 491.14,160.77 494.72,161.06 498.29,161.35 501.87,161.63 505.45,161.91 509.03,162.18 512.61,162.45 516.19,162.72 519.77,162.98 523.35,163.24 526.93,163.50 530.50,163.76 534.08,164.01 537.66,164.27 541.24,164.53 544.82,164.80 548.40,165.07 551.98,165.34 555.56,165.63 559.14,165.92 562.71,166.22 566.29,166.53 569.87,166.85 573.45,167.18 577.03,167.52 580.61,167.86 584.19,168.22 587.77,168.59 591.34,168.97 594.92,169.35 598.50,169.74 602.08,170.14 605.66,170.54 609.24,170.95 612.82,171.36 616.40,171.77 619.98,172.19 623.55,172.60 627.13,173.01 630.71,173.41 634.29,173.81 637.87,174.20 641.45,174.58 645.03,174.95 648.61,175.30 652.19,175.62 655.76,175.92 659.34,176.20 "
         style="fill:none;stroke:#fb8022;stroke-width:1.45;stroke-linecap:butt;stroke-linejoin:round;stroke-miterlimit:10"
         id="polyline63" />
      <polyline
         points="444.61,157.09 448.19,157.36 451.77,157.63 455.35,157.91 458.93,158.20 462.51,158.48 466.09,158.77 469.66,159.05 473.24,159.33 476.82,159.62 480.40,159.90 483.98,160.19 487.56,160.48 491.14,160.77 494.72,161.06 498.29,161.35 501.87,161.63 505.45,161.91 509.03,162.18 512.61,162.45 516.19,162.72 519.77,162.98 523.35,163.24 526.93,163.50 530.50,163.76 534.08,164.01 537.66,164.27 541.24,164.53 544.82,164.80 548.40,165.07 551.98,165.34 555.56,165.63 559.14,165.92 562.71,166.22 566.29,166.53 569.87,166.85 573.45,167.18 577.03,167.52 580.61,167.86 584.19,168.22 587.77,168.59 591.34,168.97 594.92,169.35 598.50,169.74 602.08,170.14 605.66,170.54 609.24,170.95 612.82,171.36 616.40,171.77 619.98,172.19 623.55,172.60 627.13,173.01 630.71,173.41 634.29,173.81 637.87,174.20 641.45,174.58 645.03,174.95 648.61,175.30 652.19,175.62 655.76,175.92 659.34,176.20 "
         style="fill:none;stroke:#fb8022;stroke-width:1.45;stroke-linecap:butt;stroke-linejoin:round;stroke-miterlimit:10"
         id="polyline64" />
      <polyline
         points="444.61,157.09 448.19,157.38 451.77,157.67 455.35,157.96 458.93,158.25 462.51,158.55 466.09,158.86 469.66,159.18 473.24,159.50 476.82,159.82 480.40,160.15 483.98,160.49 487.56,160.82 491.14,161.16 494.72,161.50 498.29,161.85 501.87,162.20 505.45,162.56 509.03,162.92 512.61,163.28 516.19,163.65 519.77,164.02 523.35,164.40 526.93,164.78 530.50,165.16 534.08,165.55 537.66,165.94 541.24,166.33 544.82,166.73 548.40,167.13 551.98,167.53 555.56,167.94 559.14,168.34 562.71,168.75 566.29,169.16 569.87,169.58 573.45,170.00 577.03,170.42 580.61,170.84 584.19,171.26 587.77,171.69 591.34,172.11 594.92,172.53 598.50,172.95 602.08,173.36 605.66,173.76 609.24,174.14 612.82,174.52 616.40,174.87 619.98,175.20 623.55,175.52 627.13,175.81 630.71,176.07 634.29,176.32 637.87,176.54 641.45,176.73 645.03,176.90 648.61,177.05 652.19,177.19 655.76,177.30 659.34,177.40 "
         style="fill:none;stroke:#7a0403;stroke-width:1.45;stroke-linecap:butt;stroke-linejoin:round;stroke-miterlimit:10"
         id="polyline65" />
      <polyline
         points="444.61,157.09 448.19,157.42 451.77,157.76 455.35,158.11 458.93,158.46 462.51,158.82 466.09,159.17 469.66,159.53 473.24,159.90 476.82,160.27 480.40,160.64 483.98,161.02 487.56,161.40 491.14,161.79 494.72,162.18 498.29,162.58 501.87,162.98 505.45,163.38 509.03,163.79 512.61,164.20 516.19,164.62 519.77,165.04 523.35,165.46 526.93,165.89 530.50,166.32 534.08,166.76 537.66,167.19 541.24,167.63 544.82,168.07 548.40,168.51 551.98,168.96 555.56,169.40 559.14,169.86 562.71,170.31 566.29,170.77 569.87,171.22 573.45,171.68 577.03,172.13 580.61,172.58 584.19,173.02 587.77,173.45 591.34,173.87 594.92,174.27 598.50,174.65 602.08,175.01 605.66,175.34 609.24,175.66 612.82,175.94 616.40,176.21 619.98,176.44 623.55,176.65 627.13,176.84 630.71,177.00 634.29,177.14 637.87,177.26 641.45,177.37 645.03,177.46 648.61,177.53 652.19,177.59 655.76,177.64 659.34,177.68 "
         style="fill:none;stroke:#7a0403;stroke-width:1.45;stroke-linecap:butt;stroke-linejoin:round;stroke-miterlimit:10"
         id="polyline66" />
      <text
         x="587.77002"
         y="66.900002"
         style="font-size:8.25px;font-family:Arial;white-space:pre;fill:#30123b"
         textLength="59.130001"
         lengthAdjust="spacingAndGlyphs"
         id="text66">Total family size</text>
      <text
         x="587.77002"
         y="75.18"
         style="font-size:8.25px;font-family:Arial;white-space:pre;fill:#28bbec"
         textLength="63.73"
         lengthAdjust="spacingAndGlyphs"
         id="text67">Resident children</text>
      <text
         x="587.77002"
         y="83.459999"
         style="font-size:8.25px;font-family:Arial;white-space:pre;fill:#a2fc3c"
         textLength="63.73"
         lengthAdjust="spacingAndGlyphs"
         id="text68">Surviving parents</text>
      <text
         x="587.77002"
         y="91.739998"
         style="font-size:8.25px;font-family:Arial;white-space:pre;fill:#fb8022"
         textLength="56.849998"
         lengthAdjust="spacingAndGlyphs"
         id="text69">Surviving wives</text>
      <text
         x="587.77002"
         y="100.02"
         style="font-size:8.25px;font-family:Arial;white-space:pre;fill:#7a0403"
         textLength="71.989998"
         lengthAdjust="spacingAndGlyphs"
         id="text70">Surviving husbands</text>
      <rect
         x="433.88"
         y="53.060001"
         width="236.2"
         height="130.67"
         style="fill:none;stroke:#000000;stroke-width:1.45;stroke-linecap:round;stroke-linejoin:round;stroke-miterlimit:10"
         id="rect70" />
    </g>
    <g
       clip-path="url(#cpMTkwLjIwfDQyNi40MHwyOS44NHw1My4wNg==)"
       id="g72"
       transform="matrix(0.35277777,0,0,0.35277777,-48.06207,113.51851)">
      <rect
         x="190.2"
         y="29.84"
         width="236.2"
         height="23.219999"
         style="fill:#000000;stroke:#000000;stroke-width:1.45;stroke-linecap:round;stroke-linejoin:round;stroke-miterlimit:10"
         id="rect72" />
      <text
         x="308.29999"
         y="45.759998"
         text-anchor="middle"
         style="font-size:12px;font-family:Arial;white-space:pre;fill:#ffffff"
         textLength="81.389999"
         lengthAdjust="spacingAndGlyphs"
         id="text72">No Menopause</text>
    </g>
    <g
       clip-path="url(#cpNDMzLjg4fDY3MC4wOHwyOS44NHw1My4wNg==)"
       id="g74"
       transform="matrix(0.35277777,0,0,0.35277777,-48.06207,113.51851)">
      <rect
         x="433.88"
         y="29.84"
         width="236.2"
         height="23.219999"
         style="fill:#000000;stroke:#000000;stroke-width:1.45;stroke-linecap:round;stroke-linejoin:round;stroke-miterlimit:10"
         id="rect74" />
      <text
         x="551.97998"
         y="45.759998"
         text-anchor="middle"
         style="font-size:12px;font-family:Arial;white-space:pre;fill:#ffffff"
         textLength="110.74"
         lengthAdjust="spacingAndGlyphs"
         id="text74">Menopause (age 38)</text>
    </g>
    <g
       clip-path="url(#cpMC4wMHw3OTIuMDB8MC4wMHw3MjAuMDA=)"
       id="g83"
       transform="matrix(0.35277777,0,0,0.35277777,-48.06207,113.51851)">
      <text
         x="183.48"
         y="182.10001"
         text-anchor="end"
         style="font-size:12px;font-family:Arial;white-space:pre"
         textLength="6.6700001"
         lengthAdjust="spacingAndGlyphs"
         id="text75">0</text>
      <text
         x="183.48"
         y="140.7"
         text-anchor="end"
         style="font-size:12px;font-family:Arial;white-space:pre"
         textLength="6.6700001"
         lengthAdjust="spacingAndGlyphs"
         id="text76">2</text>
      <text
         x="183.48"
         y="99.300003"
         text-anchor="end"
         style="font-size:12px;font-family:Arial;white-space:pre"
         textLength="6.6700001"
         lengthAdjust="spacingAndGlyphs"
         id="text77">4</text>
      <text
         x="183.48"
         y="57.900002"
         text-anchor="end"
         style="font-size:12px;font-family:Arial;white-space:pre"
         textLength="6.6700001"
         lengthAdjust="spacingAndGlyphs"
         id="text78">6</text>
      <polyline
         points="186.46,177.79 190.20,177.79 "
         style="fill:none;stroke:#000000;stroke-width:0.73;stroke-linecap:butt;stroke-linejoin:round;stroke-miterlimit:10"
         id="polyline78" />
      <polyline
         points="186.46,136.39 190.20,136.39 "
         style="fill:none;stroke:#000000;stroke-width:0.73;stroke-linecap:butt;stroke-linejoin:round;stroke-miterlimit:10"
         id="polyline79" />
      <polyline
         points="186.46,94.99 190.20,94.99 "
         style="fill:none;stroke:#000000;stroke-width:0.73;stroke-linecap:butt;stroke-linejoin:round;stroke-miterlimit:10"
         id="polyline80" />
      <polyline
         points="186.46,53.60 190.20,53.60 "
         style="fill:none;stroke:#000000;stroke-width:0.73;stroke-linecap:butt;stroke-linejoin:round;stroke-miterlimit:10"
         id="polyline81" />
      <text
         x="146.37"
         y="63.82"
         text-anchor="end"
         style="font-size:15px;font-family:Arial;white-space:pre"
         textLength="44.169998"
         lengthAdjust="spacingAndGlyphs"
         id="text81">Family</text>
      <text
         x="146.37"
         y="80.019997"
         text-anchor="end"
         style="font-size:15px;font-family:Arial;white-space:pre"
         textLength="58.369999"
         lengthAdjust="spacingAndGlyphs"
         id="text82">numbers</text>
      <text
         x="772.54999"
         y="27.85"
         text-anchor="middle"
         style="font-size:18px;font-family:Arial;white-space:pre"
         textLength="12"
         lengthAdjust="spacingAndGlyphs"
         id="text83">A</text>
    </g>
  </g>
</svg>
